<svg width="101" height="101" viewBox="0 0 101 101" fill="none" xmlns="http://www.w3.org/2000/svg">
<g clip-path="url(#clip0_3_109)">
<path d="M72.9817 26.9488H28.0188V71.9117H72.9817V26.9488Z" fill="#F7DF1E"/>
<path d="M58.2224 62.0762C59.1281 63.555 60.3064 64.642 62.3904 64.642C64.1411 64.642 65.2595 63.767 65.2595 62.558C65.2595 61.1092 64.1104 60.596 62.1834 59.7532L61.1272 59.3C58.0783 58.001 56.0528 56.3738 56.0528 52.9338C56.0528 49.765 58.4672 47.3527 62.2405 47.3527C64.9269 47.3527 66.8582 48.2876 68.2499 50.7356L64.9597 52.8481C64.2353 51.5492 63.4538 51.0375 62.2405 51.0375C61.003 51.0375 60.2186 51.8225 60.2186 52.8481C60.2186 54.1157 61.0037 54.6288 62.8165 55.4139L63.8728 55.8664C67.4627 57.4058 69.4896 58.9752 69.4896 62.5037C69.4896 66.3078 66.5013 68.3917 62.4882 68.3917C58.5643 68.3917 56.0292 66.5219 54.7888 64.071L58.2224 62.0762ZM43.2969 62.4424C43.9606 63.62 44.5644 64.6156 46.0161 64.6156C47.4042 64.6156 48.2799 64.0725 48.2799 61.9606V47.5939H52.505V62.0177C52.505 66.3927 49.94 68.3839 46.1959 68.3839C42.813 68.3839 40.8539 66.6332 39.8576 64.5246L43.2969 62.4424Z" fill="black"/>
</g>
<path d="M50.5 0.5C61.0555 0.5 71.3403 3.84058 79.8811 10.0432C88.422 16.2459 94.7807 24.9924 98.0466 35.03C101.312 45.0676 101.318 55.8813 98.0621 65.9222C94.8064 75.9631 88.4564 84.716 79.9218 90.9272L75.4193 84.7405C82.6478 79.4798 88.0261 72.0664 90.7836 63.5621C93.5411 55.0578 93.5365 45.899 90.7705 37.3974C88.0044 28.8959 82.6187 21.4879 75.3849 16.2344C68.151 10.981 59.4402 8.15161 50.5 8.15161V0.5Z" fill="url(#paint0_linear_3_109)" fill-opacity="0.75"/>
<defs>
<linearGradient id="paint0_linear_3_109" x1="100.753" y1="50.7527" x2="0.247527" y2="50.7527" gradientUnits="userSpaceOnUse">
<stop stop-color="#EF344A"/>
<stop offset="1" stop-color="#F08019"/>
</linearGradient>
<clipPath id="clip0_3_109">
<rect width="44.9629" height="44.9629" fill="white" transform="translate(28.0188 26.9488)"/>
</clipPath>
</defs>
</svg>
