<svg width="135" height="27" viewBox="0 0 135 27" fill="none" xmlns="http://www.w3.org/2000/svg">
<g clip-path="url(#clip0_4_44)">
<path d="M32.4869 25.3106C32.4669 25.2893 32.4514 25.2643 32.4413 25.237C32.4311 25.2097 32.4265 25.1807 32.4278 25.1517V22.4948C32.4278 22.4292 32.4486 22.3739 32.4869 22.3359C32.5252 22.2979 32.5809 22.2772 32.654 22.2772H34.2828C34.3489 22.2772 34.4046 22.2944 34.4394 22.3255C34.4777 22.3566 34.4951 22.4016 34.4951 22.4603C34.4951 22.519 34.4777 22.5639 34.4394 22.595C34.4012 22.6261 34.3489 22.6399 34.2828 22.6399H32.8767V23.6142H34.1958C34.2654 23.6142 34.3176 23.6315 34.3524 23.6626C34.3907 23.6937 34.4081 23.7386 34.4081 23.7973C34.4081 23.8561 34.3907 23.901 34.3524 23.9321C34.3141 23.9632 34.2619 23.9805 34.1958 23.9805H32.8767V25.0031H34.2828C34.4255 25.0031 34.4951 25.0618 34.4951 25.1828C34.4951 25.2415 34.4777 25.2864 34.4394 25.3175C34.4012 25.3486 34.3489 25.3659 34.2828 25.3659H32.654C32.5844 25.3728 32.5287 25.3521 32.4869 25.3106ZM33.5067 22.0319C33.4754 22.0319 33.4475 22.0215 33.4232 22.0008C33.4124 21.9912 33.4038 21.9794 33.3978 21.9664C33.3918 21.9533 33.3886 21.9391 33.3884 21.9248C33.3884 21.8971 33.4023 21.866 33.4266 21.8419L33.8478 21.3996C33.9035 21.3443 33.9626 21.3167 34.0218 21.3167C34.0456 21.3164 34.0693 21.3209 34.0914 21.3298C34.1135 21.3387 34.1335 21.352 34.1504 21.3687C34.1672 21.3854 34.1806 21.4054 34.1896 21.4273C34.1986 21.4492 34.203 21.4727 34.2028 21.4964C34.2028 21.5655 34.161 21.6276 34.0775 21.676L33.5693 22.0146C33.5506 22.0264 33.5288 22.0324 33.5067 22.0319ZM35.3374 25.2657C35.1808 25.1759 35.0555 25.0446 34.9685 24.8787C34.8815 24.7129 34.8362 24.5194 34.8362 24.2983C34.8362 24.0772 34.8814 23.8803 34.9719 23.711C35.0624 23.5417 35.1877 23.4104 35.3513 23.3171C35.5149 23.2238 35.6994 23.1755 35.9082 23.1755C36.0195 23.1755 36.1344 23.1927 36.2458 23.2238C36.3606 23.2549 36.4616 23.2998 36.5486 23.3551C36.6425 23.4208 36.6913 23.4933 36.6913 23.5797C36.6913 23.628 36.6773 23.673 36.653 23.7041C36.6251 23.7386 36.5938 23.7559 36.5521 23.7559C36.5242 23.7559 36.4998 23.749 36.472 23.7351C36.4442 23.7213 36.4128 23.7006 36.3711 23.6764C36.3067 23.6334 36.2379 23.5975 36.1657 23.5693C36.1031 23.5451 36.0265 23.5313 35.936 23.5313C35.7342 23.5313 35.581 23.6004 35.4696 23.7351C35.3583 23.8699 35.3026 24.0565 35.3026 24.2983C35.3026 24.5401 35.3583 24.7233 35.4662 24.8545C35.5741 24.9858 35.7307 25.0515 35.9291 25.0515C36.0161 25.0515 36.0961 25.0377 36.1622 25.0135C36.2284 24.9893 36.298 24.9513 36.3711 24.9064C36.4024 24.8856 36.4372 24.8684 36.4685 24.8545C36.4998 24.8407 36.5312 24.8338 36.5555 24.8338C36.5973 24.8338 36.6321 24.8511 36.6565 24.8856C36.6843 24.9202 36.6948 24.9616 36.6948 25.01C36.6948 25.0515 36.6843 25.0895 36.6599 25.1206C36.6356 25.1517 36.6008 25.1897 36.5486 25.2242C36.4616 25.283 36.3571 25.3279 36.2388 25.359C36.1205 25.3901 36.0021 25.4073 35.8803 25.4073C35.6785 25.4004 35.4975 25.3555 35.3374 25.2657ZM37.4813 25.2657C37.3212 25.1759 37.1959 25.0446 37.1089 24.8787C37.0219 24.7129 36.9767 24.516 36.9767 24.2914C36.9767 24.0668 37.0219 23.8699 37.1089 23.7006C37.1959 23.5313 37.3212 23.4035 37.4813 23.3136C37.6414 23.2238 37.8294 23.1789 38.0417 23.1789C38.254 23.1789 38.4419 23.2238 38.602 23.3136C38.7621 23.4035 38.8874 23.5348 38.9744 23.7006C39.0614 23.8699 39.1067 24.0668 39.1067 24.2914C39.1067 24.5125 39.0614 24.7094 38.9744 24.8787C38.8874 25.048 38.7621 25.1759 38.602 25.2657C38.4419 25.3555 38.254 25.4004 38.0417 25.4004C37.8294 25.4004 37.6414 25.3555 37.4813 25.2657ZM38.4941 24.858C38.5985 24.7302 38.6508 24.5401 38.6508 24.2914C38.6508 24.0461 38.5985 23.8561 38.4907 23.7282C38.3828 23.597 38.2331 23.5313 38.0382 23.5313C37.8433 23.5313 37.6936 23.597 37.5857 23.7282C37.4779 23.8595 37.4256 24.0461 37.4256 24.2914C37.4256 24.5401 37.4778 24.7302 37.5823 24.858C37.6867 24.9858 37.8398 25.0515 38.0347 25.0515C38.2366 25.0515 38.3897 24.9858 38.4941 24.858ZM39.6636 25.3417C39.6218 25.3071 39.6009 25.2553 39.6009 25.1828V22.4672C39.6009 22.3981 39.6218 22.3428 39.6636 22.3083C39.7053 22.2703 39.761 22.253 39.8237 22.253C39.8898 22.253 39.942 22.2703 39.9838 22.3083C40.0255 22.3463 40.0464 22.3981 40.0464 22.4672V25.1828C40.0464 25.2519 40.0255 25.3071 39.9838 25.3417C39.942 25.3762 39.8898 25.3935 39.8237 25.3935C39.7575 25.3935 39.7053 25.3762 39.6636 25.3417ZM42.4618 24.8787C42.4897 24.9098 42.5001 24.9513 42.5001 25.0031C42.5001 25.0895 42.4479 25.1586 42.34 25.2173C42.2356 25.276 42.1242 25.321 42.0024 25.3521C41.8806 25.3832 41.7623 25.4004 41.6509 25.4004C41.3098 25.4004 41.0383 25.3002 40.8399 25.1033C40.6416 24.9064 40.5441 24.6369 40.5441 24.2914C40.5441 24.0703 40.5893 23.8768 40.6764 23.7075C40.7634 23.5382 40.8852 23.4069 41.0453 23.3136C41.2019 23.2204 41.3829 23.172 41.5847 23.172C41.8736 23.172 42.1033 23.2653 42.2704 23.4484C42.4375 23.6315 42.521 23.8837 42.521 24.1947C42.521 24.3121 42.4688 24.3709 42.3609 24.3709H40.9931C41.0209 24.8235 41.2437 25.0515 41.6509 25.0515C41.7588 25.0515 41.8562 25.0377 41.9328 25.0066C42.0128 24.9789 42.0964 24.9409 42.1834 24.8926C42.1938 24.8856 42.2182 24.8753 42.2565 24.8545C42.2879 24.8387 42.3222 24.8293 42.3574 24.8269C42.3992 24.8304 42.434 24.8476 42.4618 24.8787ZM41.1775 23.6626C41.0731 23.7697 41.014 23.9217 40.9931 24.1186H42.1347C42.1242 23.9183 42.0755 23.7662 41.9815 23.6591C41.8875 23.552 41.7588 23.5002 41.5882 23.5002C41.4177 23.5002 41.282 23.5555 41.1775 23.6626ZM46.1093 22.3083C46.1511 22.3463 46.172 22.3981 46.172 22.4603V25.1759C46.172 25.245 46.1511 25.2968 46.1128 25.3348C46.0745 25.3728 46.0188 25.3901 45.9527 25.3901C45.8831 25.3901 45.8309 25.3728 45.7926 25.3348C45.7723 25.3137 45.7566 25.2887 45.7465 25.2614C45.7363 25.2341 45.7319 25.2049 45.7334 25.1759V24.9997C45.6673 25.1275 45.5733 25.2277 45.4515 25.2968C45.3262 25.3659 45.1835 25.4004 45.0234 25.4004C44.8389 25.4004 44.6719 25.3521 44.5257 25.2588C44.3795 25.1655 44.2647 25.0342 44.1846 24.8649C44.1046 24.6956 44.0628 24.4987 44.0628 24.281C44.0628 24.0599 44.1046 23.863 44.1846 23.6971C44.2647 23.5313 44.3795 23.4 44.5222 23.3102C44.6649 23.2204 44.832 23.1755 45.0234 23.1755C45.187 23.1755 45.3297 23.21 45.4515 23.2791C45.5733 23.3482 45.6673 23.4449 45.7334 23.5728V22.4568C45.7334 22.3946 45.7543 22.3463 45.7926 22.3083C45.8309 22.2703 45.8866 22.253 45.9527 22.253C46.0188 22.253 46.0675 22.2703 46.1093 22.3083ZM45.5664 24.8545C45.6742 24.7233 45.7265 24.5367 45.7265 24.2914C45.7265 24.0461 45.6743 23.8595 45.5698 23.7282C45.4654 23.597 45.3158 23.5313 45.1209 23.5313C44.926 23.5313 44.7763 23.597 44.6684 23.7282C44.5605 23.8595 44.5083 24.0426 44.5083 24.2845C44.5083 24.5229 44.564 24.7129 44.6719 24.8476C44.7798 24.9824 44.9329 25.0515 45.1243 25.0515C45.3123 25.0515 45.4619 24.9858 45.5664 24.8545ZM48.5874 24.8787C48.6152 24.9098 48.6257 24.9513 48.6257 25.0031C48.6257 25.0895 48.5734 25.1586 48.4656 25.2173C48.3611 25.276 48.2498 25.321 48.1279 25.3521C48.0061 25.3832 47.8878 25.4004 47.7764 25.4004C47.4353 25.4004 47.1639 25.3002 46.9655 25.1033C46.7671 24.9064 46.6697 24.6369 46.6697 24.2914C46.6697 24.0703 46.7149 23.8768 46.8019 23.7075C46.8889 23.5382 47.0107 23.4069 47.1708 23.3136C47.3275 23.2204 47.5084 23.172 47.7068 23.172C47.9957 23.172 48.2254 23.2653 48.3925 23.4484C48.5595 23.6315 48.6431 23.8837 48.6431 24.1947C48.6431 24.3121 48.5908 24.3709 48.483 24.3709H47.1151C47.143 24.8235 47.3657 25.0515 47.7729 25.0515C47.8808 25.0515 47.9783 25.0377 48.0549 25.0066C48.1349 24.9789 48.2184 24.9409 48.3054 24.8926C48.3159 24.8856 48.3403 24.8753 48.3785 24.8545C48.41 24.8387 48.4443 24.8293 48.4795 24.8269C48.5247 24.8304 48.5595 24.8476 48.5874 24.8787ZM47.3031 23.6626C47.1987 23.7697 47.1395 23.9217 47.1186 24.1186H48.2602C48.2498 23.9183 48.201 23.7662 48.1071 23.6591C48.0131 23.552 47.8843 23.5002 47.7138 23.5002C47.5432 23.5002 47.4075 23.5555 47.3031 23.6626ZM49.1477 25.2173C49.1031 25.1932 49.0649 25.1588 49.0363 25.1171C49.0155 25.0826 49.0015 25.0411 49.0015 24.9997C49.0015 24.9513 49.0155 24.9133 49.0398 24.8822C49.0519 24.8671 49.0672 24.8549 49.0847 24.8465C49.1022 24.8382 49.1213 24.8338 49.1408 24.8338C49.179 24.8338 49.2382 24.858 49.3217 24.9029C49.4087 24.9513 49.4958 24.9893 49.5793 25.0169C49.6628 25.0446 49.7672 25.0618 49.896 25.0618C50.0387 25.0618 50.1466 25.0377 50.2266 24.9858C50.3067 24.9375 50.345 24.8649 50.345 24.7751C50.345 24.7164 50.3311 24.668 50.2997 24.6334C50.2684 24.5989 50.2162 24.5678 50.1396 24.5401C50.0631 24.5125 49.9482 24.4814 49.7986 24.4503C49.5375 24.395 49.3531 24.319 49.2382 24.2223C49.1234 24.1256 49.0677 23.9977 49.0677 23.8319C49.0677 23.7075 49.106 23.5935 49.179 23.4899C49.2521 23.3897 49.3531 23.3102 49.4853 23.2549C49.6141 23.1996 49.7638 23.172 49.9273 23.172C50.0457 23.172 50.1605 23.1858 50.2719 23.2169C50.3833 23.248 50.4842 23.2929 50.5677 23.3517C50.6652 23.4173 50.7139 23.4899 50.7139 23.5762C50.7139 23.6246 50.7 23.6626 50.6721 23.6937C50.6443 23.7248 50.6095 23.7421 50.5712 23.7421C50.5434 23.7421 50.519 23.7351 50.4912 23.7248C50.4633 23.7144 50.4285 23.6937 50.3833 23.6695C50.3032 23.6211 50.2301 23.5866 50.1605 23.559C50.0909 23.5313 50.0039 23.5209 49.903 23.5209C49.7777 23.5209 49.6802 23.5486 49.6037 23.6004C49.5271 23.6522 49.4923 23.7248 49.4923 23.8146C49.4923 23.8975 49.5271 23.9597 49.5967 24.0046C49.6663 24.0495 49.7951 24.0945 49.99 24.1325C50.1884 24.1739 50.3415 24.2188 50.4564 24.2741C50.5677 24.3259 50.6478 24.3916 50.6965 24.4711C50.7452 24.5471 50.7696 24.6473 50.7696 24.7682C50.7696 24.9582 50.6895 25.1102 50.5294 25.2277C50.3693 25.3417 50.1536 25.4004 49.8856 25.4004C49.5862 25.4004 49.3391 25.3417 49.1477 25.2173ZM55.4194 22.3152C55.4612 22.3566 55.4821 22.4119 55.4821 22.481V25.1793C55.4821 25.2484 55.4647 25.3002 55.4264 25.3382C55.3881 25.3762 55.3394 25.3935 55.2733 25.3935C55.2106 25.3935 55.1619 25.3762 55.1271 25.3382C55.0923 25.3002 55.0749 25.2484 55.0749 25.1793V23.1374L54.2083 24.7751C54.1526 24.8787 54.0795 24.9271 53.9925 24.9271C53.9055 24.9271 53.8324 24.8753 53.7767 24.7751L52.9066 23.1547V25.1793C52.9066 25.2484 52.8892 25.3002 52.8544 25.3382C52.8196 25.3762 52.7674 25.3935 52.7047 25.3935C52.677 25.3944 52.6495 25.3897 52.6237 25.3796C52.598 25.3695 52.5746 25.3542 52.5551 25.3348C52.5168 25.2968 52.4994 25.245 52.4994 25.1793V22.481C52.4994 22.4154 52.5202 22.3601 52.562 22.3152C52.6038 22.2737 52.656 22.253 52.7221 22.253C52.8126 22.253 52.8857 22.3048 52.9449 22.4119L54.0029 24.4192L55.0505 22.4119C55.1062 22.3048 55.1793 22.253 55.2663 22.253C55.3255 22.253 55.3777 22.2737 55.4194 22.3152ZM57.9497 24.8787C57.9776 24.9098 57.988 24.9513 57.988 25.0031C57.988 25.0895 57.9358 25.1586 57.8279 25.2173C57.7235 25.276 57.6121 25.321 57.4903 25.3521C57.3685 25.3832 57.2501 25.4004 57.1388 25.4004C56.7977 25.4004 56.5262 25.3002 56.3278 25.1033C56.1294 24.9064 56.032 24.6369 56.032 24.2914C56.032 24.0703 56.0772 23.8768 56.1643 23.7075C56.2513 23.5382 56.3731 23.4069 56.5332 23.3136C56.6898 23.2204 56.8708 23.172 57.0726 23.172C57.3615 23.172 57.5912 23.2653 57.7583 23.4484C57.9253 23.6315 58.0089 23.8837 58.0089 24.1947C58.0089 24.3121 57.9567 24.3709 57.8488 24.3709H56.481C56.5088 24.8235 56.7316 25.0515 57.1388 25.0515C57.2467 25.0515 57.3441 25.0377 57.4207 25.0066C57.5007 24.9789 57.5843 24.9409 57.6713 24.8926C57.6817 24.8856 57.7061 24.8753 57.7444 24.8545C57.7758 24.8387 57.8101 24.8293 57.8453 24.8269C57.8905 24.8304 57.9253 24.8476 57.9497 24.8787ZM56.6689 23.6626C56.5645 23.7697 56.5053 23.9217 56.4844 24.1186H57.626C57.6156 23.9183 57.5669 23.7662 57.4729 23.6591C57.3789 23.552 57.2501 23.5002 57.0796 23.5002C56.9091 23.5002 56.7698 23.5555 56.6689 23.6626ZM57.0796 22.9682C57.0483 22.9682 57.017 22.9578 56.9926 22.9336C56.9809 22.9231 56.9715 22.9103 56.9649 22.896C56.9583 22.8818 56.9547 22.8664 56.9543 22.8507C56.9543 22.8231 56.9647 22.7954 56.9856 22.7712L57.4625 22.1528C57.5216 22.0733 57.5877 22.0353 57.6678 22.0353C57.7235 22.0353 57.7722 22.0526 57.8105 22.0941C57.8488 22.1321 57.8697 22.177 57.8697 22.2288C57.8697 22.2944 57.8349 22.3601 57.7618 22.4188L57.1631 22.9405C57.1388 22.9578 57.1109 22.9682 57.0796 22.9682ZM59.676 25.1068C59.7038 25.1344 59.7178 25.1724 59.7178 25.2242C59.7178 25.283 59.6934 25.3279 59.6482 25.359C59.6029 25.3901 59.5368 25.4039 59.4463 25.397L59.328 25.3901C59.0878 25.3728 58.9103 25.3002 58.792 25.1724C58.6736 25.0446 58.6145 24.858 58.6145 24.6092V23.5762H58.35C58.2212 23.5762 58.1551 23.5175 58.1551 23.4035C58.1551 23.3517 58.1725 23.3102 58.2073 23.2791C58.2421 23.248 58.2908 23.2342 58.35 23.2342H58.6145V22.7816C58.6145 22.7125 58.6354 22.6607 58.6736 22.6227C58.7119 22.5847 58.7676 22.5674 58.8337 22.5674C58.8999 22.5674 58.9556 22.5847 58.9973 22.6227C59.0391 22.6607 59.06 22.7125 59.06 22.7816V23.2342H59.4985C59.5611 23.2342 59.6099 23.248 59.6412 23.2791C59.6725 23.3102 59.6934 23.3517 59.6934 23.4035C59.6934 23.4588 59.676 23.5002 59.6412 23.5313C59.6064 23.559 59.5577 23.5762 59.4985 23.5762H59.06V24.6403C59.06 24.7785 59.0878 24.8787 59.147 24.9444C59.2061 25.01 59.2932 25.0446 59.4115 25.0549L59.5368 25.0618C59.5994 25.0618 59.6482 25.0791 59.676 25.1068ZM60.0623 22.6814C60.0136 22.633 59.9858 22.5743 59.9858 22.4983C59.9858 22.4223 60.0101 22.3601 60.0623 22.3152C60.1111 22.2703 60.1807 22.2461 60.2677 22.2461C60.3512 22.2461 60.4173 22.2703 60.4695 22.3152C60.5217 22.3601 60.5461 22.4223 60.5461 22.4983C60.5461 22.5743 60.5217 22.6365 60.4695 22.6814C60.4208 22.7298 60.3512 22.7505 60.2677 22.7505C60.1807 22.754 60.1111 22.7298 60.0623 22.6814ZM60.1041 25.3417C60.0623 25.3071 60.0414 25.2553 60.0414 25.1828V23.4C60.0414 23.3309 60.0623 23.2756 60.1041 23.2411C60.1459 23.2031 60.2015 23.1858 60.2642 23.1858C60.3303 23.1858 60.3825 23.2031 60.4243 23.2411C60.4661 23.2791 60.4869 23.3309 60.4869 23.4V25.1828C60.4869 25.2519 60.4661 25.3071 60.4243 25.3417C60.3825 25.3762 60.3303 25.3935 60.2642 25.3935C60.2015 25.3935 60.1459 25.3762 60.1041 25.3417ZM62.9024 24.8787C62.9302 24.9098 62.9406 24.9513 62.9406 25.0031C62.9406 25.0895 62.8884 25.1586 62.7805 25.2173C62.6761 25.276 62.5648 25.321 62.4429 25.3521C62.3211 25.3832 62.2028 25.4004 62.0914 25.4004C61.7503 25.4004 61.4789 25.3002 61.2805 25.1033C61.0821 24.9064 60.9846 24.6369 60.9846 24.2914C60.9846 24.0703 61.0299 23.8768 61.1169 23.7075C61.2039 23.5382 61.3257 23.4069 61.4858 23.3136C61.6424 23.2204 61.8234 23.172 62.0253 23.172C62.3142 23.172 62.5439 23.2653 62.7109 23.4484C62.878 23.6315 62.9615 23.8837 62.9615 24.1947C62.9615 24.3121 62.9093 24.3709 62.8014 24.3709H61.4336C61.4615 24.8235 61.6842 25.0515 62.0914 25.0515C62.1993 25.0515 62.2968 25.0377 62.3733 25.0066C62.4534 24.9789 62.5369 24.9409 62.6239 24.8926C62.6344 24.8856 62.6587 24.8753 62.697 24.8545C62.7284 24.8387 62.7628 24.8293 62.7979 24.8269C62.8432 24.8304 62.878 24.8476 62.9024 24.8787ZM61.6216 23.6626C61.5171 23.7697 61.458 23.9217 61.4371 24.1186H62.5787C62.5682 23.9183 62.5195 23.7662 62.4255 23.6591C62.3316 23.552 62.2028 23.5002 62.0322 23.5002C61.8617 23.5002 61.7225 23.5555 61.6216 23.6626ZM64.7992 23.362C64.7992 23.4277 64.7818 23.476 64.7505 23.5071C64.7191 23.5382 64.6635 23.559 64.5834 23.5659L64.4511 23.5797C64.2667 23.597 64.1275 23.6626 64.037 23.7732C63.9465 23.8837 63.9012 24.0185 63.9012 24.1774V25.1828C63.9012 25.2519 63.8804 25.3071 63.8386 25.3417C63.7968 25.3762 63.7446 25.3935 63.6785 25.3935C63.6124 25.3935 63.5602 25.3762 63.5184 25.3417C63.4766 25.3071 63.4557 25.2553 63.4557 25.1828V23.3931C63.4557 23.3275 63.4766 23.2756 63.5184 23.2376C63.5602 23.1996 63.6158 23.1824 63.6785 23.1824C63.7377 23.1824 63.7864 23.1996 63.8281 23.2376C63.8664 23.2756 63.8873 23.324 63.8873 23.3897V23.6004C63.9465 23.4726 64.03 23.3724 64.1449 23.3067C64.2562 23.2376 64.385 23.1996 64.5242 23.1893L64.5869 23.1858C64.7261 23.1755 64.7992 23.2342 64.7992 23.362ZM65.0637 25.2173C65.0191 25.1932 64.9809 25.1588 64.9523 25.1171C64.9314 25.0826 64.9175 25.0411 64.9175 24.9997C64.9175 24.9513 64.9314 24.9133 64.9558 24.8822C64.9679 24.8671 64.9832 24.8549 65.0007 24.8465C65.0182 24.8382 65.0373 24.8338 65.0567 24.8338C65.095 24.8338 65.1542 24.858 65.2377 24.9029C65.3247 24.9513 65.4117 24.9893 65.4953 25.0169C65.5788 25.0446 65.6832 25.0618 65.812 25.0618C65.9547 25.0618 66.0626 25.0377 66.1426 24.9858C66.2227 24.9375 66.261 24.8649 66.261 24.7751C66.261 24.7164 66.247 24.668 66.2157 24.6334C66.1844 24.5989 66.1322 24.5678 66.0556 24.5401C65.979 24.5125 65.8642 24.4814 65.7145 24.4503C65.4535 24.395 65.269 24.319 65.1542 24.2223C65.0393 24.1256 64.9837 23.9977 64.9837 23.8319C64.9837 23.7075 65.0219 23.5935 65.095 23.4899C65.1681 23.3897 65.269 23.3102 65.4013 23.2549C65.5301 23.1996 65.6797 23.172 65.8433 23.172C65.9617 23.172 66.0765 23.1858 66.1879 23.2169C66.2993 23.248 66.4002 23.2929 66.4837 23.3517C66.5812 23.4173 66.6299 23.4899 66.6299 23.5762C66.6299 23.6246 66.616 23.6626 66.5881 23.6937C66.5603 23.7248 66.5255 23.7421 66.4872 23.7421C66.4594 23.7421 66.435 23.7351 66.4071 23.7248C66.3793 23.7144 66.3445 23.6937 66.2993 23.6695C66.2192 23.6211 66.1461 23.5866 66.0765 23.559C66.0069 23.5313 65.9199 23.5209 65.819 23.5209C65.6937 23.5209 65.5962 23.5486 65.5196 23.6004C65.4431 23.6522 65.4083 23.7248 65.4083 23.8146C65.4083 23.8975 65.4431 23.9597 65.5127 24.0046C65.5823 24.0495 65.7111 24.0945 65.906 24.1325C66.1043 24.1739 66.2575 24.2188 66.3723 24.2741C66.4837 24.3259 66.5638 24.3916 66.6125 24.4711C66.6612 24.5471 66.6856 24.6473 66.6856 24.7682C66.6856 24.9582 66.6055 25.1102 66.4454 25.2277C66.2853 25.3417 66.0695 25.4004 65.8016 25.4004C65.5022 25.4004 65.2551 25.3417 65.0637 25.2173ZM70.2809 22.3083C70.3226 22.3463 70.3435 22.3981 70.3435 22.4603V25.1759C70.3435 25.245 70.3226 25.2968 70.2843 25.3348C70.2461 25.3728 70.1904 25.3901 70.1242 25.3901C70.0546 25.3901 70.0024 25.3728 69.9641 25.3348C69.9439 25.3137 69.9282 25.2887 69.918 25.2614C69.9078 25.2341 69.9034 25.2049 69.905 25.1759V24.9997C69.8388 25.1275 69.7449 25.2277 69.6231 25.2968C69.4978 25.3659 69.3551 25.4004 69.195 25.4004C69.0105 25.4004 68.8434 25.3521 68.6973 25.2588C68.5511 25.1655 68.4362 25.0342 68.3562 24.8649C68.2761 24.6956 68.2344 24.4987 68.2344 24.281C68.2344 24.0599 68.2761 23.863 68.3562 23.6971C68.4362 23.5313 68.5511 23.4 68.6938 23.3102C68.8365 23.2204 69.0035 23.1755 69.195 23.1755C69.3585 23.1755 69.5012 23.21 69.6231 23.2791C69.7449 23.3482 69.8388 23.4449 69.905 23.5728V22.4568C69.905 22.3946 69.9259 22.3463 69.9641 22.3083C70.0024 22.2703 70.0581 22.253 70.1242 22.253C70.1904 22.253 70.2391 22.2703 70.2809 22.3083ZM69.7414 24.8545C69.8493 24.7233 69.9015 24.5367 69.9015 24.2914C69.9015 24.0461 69.8493 23.8595 69.7449 23.7282C69.6405 23.597 69.4908 23.5313 69.2959 23.5313C69.101 23.5313 68.9513 23.597 68.8434 23.7282C68.7355 23.8595 68.6833 24.0426 68.6833 24.2845C68.6833 24.5229 68.739 24.7129 68.8469 24.8476C68.9548 24.9824 69.108 25.0515 69.2994 25.0515C69.4873 25.0515 69.6335 24.9858 69.7414 24.8545ZM72.8007 23.2411C72.839 23.2791 72.8599 23.3309 72.8599 23.4V25.1897C72.8599 25.2519 72.839 25.3002 72.7972 25.3382C72.7554 25.3762 72.6998 25.3935 72.6336 25.3935C72.571 25.3935 72.5223 25.3762 72.484 25.3382C72.4457 25.3002 72.4248 25.2519 72.4248 25.1897V25.0238C72.3552 25.1482 72.2647 25.2415 72.1429 25.3037C72.0246 25.3693 71.8888 25.4004 71.7426 25.4004C71.2171 25.4004 70.9561 25.1137 70.9561 24.5401V23.3966C70.9561 23.3275 70.9769 23.2756 71.0152 23.2376C71.0535 23.1996 71.1092 23.1824 71.1823 23.1824C71.2484 23.1824 71.3041 23.1996 71.3424 23.2376C71.3807 23.2756 71.4016 23.3275 71.4016 23.3966V24.5332C71.4016 24.706 71.4364 24.8338 71.5095 24.9167C71.5791 24.9997 71.6904 25.0411 71.8366 25.0411C72.0106 25.0411 72.1498 24.9858 72.2543 24.8753C72.3587 24.7647 72.4109 24.6162 72.4109 24.433V23.4C72.4109 23.3344 72.4318 23.2826 72.4735 23.2446C72.5153 23.2065 72.571 23.1858 72.6371 23.1858C72.7032 23.1858 72.7624 23.2031 72.8007 23.2411ZM77.2104 22.3152C77.2487 22.3566 77.2695 22.4119 77.2695 22.481V25.1655C77.2695 25.2346 77.2487 25.2864 77.2069 25.3313C77.1651 25.3728 77.1129 25.3935 77.0468 25.3935C76.9702 25.3935 76.9111 25.3659 76.8693 25.3071L75.1361 23.0373V25.1689C75.1361 25.238 75.1152 25.2899 75.0769 25.3348C75.0568 25.3557 75.0325 25.3722 75.0054 25.3829C74.9784 25.3936 74.9493 25.3984 74.9203 25.397C74.8541 25.397 74.8019 25.3762 74.7671 25.3348C74.7267 25.2891 74.7055 25.2297 74.708 25.1689V22.4845C74.708 22.4188 74.7288 22.3635 74.7706 22.3186C74.8124 22.2772 74.8646 22.2564 74.9307 22.2564C75.0073 22.2564 75.0664 22.2841 75.1082 22.3428L76.8415 24.6196V22.4845C76.8415 22.4188 76.8589 22.3635 76.9006 22.3186C76.9207 22.2977 76.945 22.2813 76.9721 22.2705C76.9991 22.2598 77.0282 22.255 77.0572 22.2564C77.1164 22.253 77.1686 22.2737 77.2104 22.3152ZM79.7755 23.2411C79.8137 23.2791 79.8346 23.3309 79.8346 23.4V25.1897C79.8346 25.2519 79.8137 25.3002 79.772 25.3382C79.7302 25.3762 79.6745 25.3935 79.6084 25.3935C79.5457 25.3935 79.497 25.3762 79.4587 25.3382C79.4391 25.3188 79.4238 25.2956 79.4136 25.2701C79.4034 25.2445 79.3986 25.2171 79.3996 25.1897V25.0238C79.33 25.1482 79.2395 25.2415 79.1177 25.3037C78.9993 25.3693 78.8636 25.4004 78.7174 25.4004C78.1919 25.4004 77.9308 25.1137 77.9308 24.5401V23.3966C77.9308 23.3275 77.9517 23.2756 77.99 23.2376C78.0283 23.1996 78.084 23.1824 78.1571 23.1824C78.2232 23.1824 78.2789 23.1996 78.3172 23.2376C78.3554 23.2756 78.3763 23.3275 78.3763 23.3966V24.5332C78.3763 24.706 78.4111 24.8338 78.4842 24.9167C78.5538 24.9997 78.6652 25.0411 78.8114 25.0411C78.9854 25.0411 79.1246 24.9858 79.229 24.8753C79.3334 24.7647 79.3857 24.6162 79.3857 24.433V23.4C79.3857 23.3344 79.4065 23.2826 79.4483 23.2446C79.4901 23.2065 79.5457 23.1858 79.6119 23.1858C79.678 23.1858 79.7372 23.2031 79.7755 23.2411ZM83.6631 24.0392V25.1828C83.6631 25.2484 83.6422 25.3037 83.6004 25.3382C83.5587 25.3762 83.503 25.3935 83.4369 25.3935C83.3707 25.3935 83.3185 25.3762 83.2768 25.3382C83.2556 25.3183 83.2391 25.2941 83.2283 25.2673C83.2175 25.2405 83.2127 25.2116 83.2141 25.1828V24.0461C83.2141 23.8664 83.1828 23.7386 83.1167 23.6591C83.0505 23.5797 82.9496 23.5382 82.8104 23.5382C82.6468 23.5382 82.518 23.5935 82.4241 23.7041C82.3301 23.8146 82.2814 23.9632 82.2814 24.1532V25.1862C82.2814 25.2519 82.2605 25.3071 82.2187 25.3417C82.1769 25.3797 82.1213 25.397 82.0551 25.397C81.989 25.397 81.9368 25.3797 81.895 25.3417C81.8739 25.3218 81.8574 25.2976 81.8466 25.2708C81.8358 25.2439 81.8309 25.2151 81.8324 25.1862V24.0495C81.8324 23.8699 81.8011 23.7421 81.7349 23.6626C81.6688 23.5831 81.5679 23.5417 81.4287 23.5417C81.2651 23.5417 81.1363 23.597 81.0423 23.7075C80.9449 23.8181 80.8996 23.9666 80.8996 24.1567V25.1897C80.8996 25.2553 80.8787 25.3106 80.837 25.3451C80.7952 25.3832 80.743 25.4004 80.6769 25.4004C80.6108 25.4004 80.5586 25.3832 80.5168 25.3451C80.4957 25.3252 80.4791 25.3011 80.4683 25.2742C80.4575 25.2474 80.4527 25.2185 80.4541 25.1897V23.4C80.4541 23.3344 80.475 23.286 80.5203 23.248C80.5649 23.2106 80.622 23.1909 80.6804 23.1927C80.743 23.1927 80.7917 23.21 80.8335 23.248C80.8718 23.286 80.8927 23.3344 80.8927 23.4V23.5624C80.9588 23.438 81.0493 23.3447 81.1641 23.2826C81.279 23.2169 81.4113 23.1858 81.5609 23.1858C81.7245 23.1858 81.8637 23.2204 81.9716 23.286C82.0795 23.3517 82.1595 23.4588 82.2118 23.597C82.2779 23.4726 82.3719 23.3689 82.5006 23.2964C82.6259 23.2204 82.7721 23.1858 82.9357 23.1858C83.4229 23.1755 83.6631 23.4622 83.6631 24.0392ZM86.0681 24.8787C86.0959 24.9098 86.1064 24.9513 86.1064 25.0031C86.1064 25.0895 86.0541 25.1586 85.9462 25.2173C85.8418 25.276 85.7305 25.321 85.6086 25.3521C85.4868 25.3832 85.3685 25.4004 85.2571 25.4004C84.916 25.4004 84.6446 25.3002 84.4462 25.1033C84.2478 24.9064 84.1504 24.6369 84.1504 24.2914C84.1504 24.0703 84.1956 23.8768 84.2826 23.7075C84.3696 23.5382 84.4914 23.4069 84.6515 23.3136C84.8081 23.2204 84.9891 23.172 85.191 23.172C85.4799 23.172 85.7096 23.2653 85.8766 23.4484C86.0437 23.6315 86.1272 23.8837 86.1272 24.1947C86.1272 24.3121 86.075 24.3709 85.9671 24.3709H84.5993C84.6272 24.8235 84.8499 25.0515 85.2571 25.0515C85.365 25.0515 85.4625 25.0377 85.539 25.0066C85.6191 24.9789 85.7026 24.9409 85.7896 24.8926C85.8001 24.8856 85.8244 24.8753 85.8627 24.8545C85.8941 24.8387 85.9285 24.8293 85.9637 24.8269C86.0054 24.8304 86.0402 24.8476 86.0681 24.8787ZM84.7838 23.6626C84.6794 23.7697 84.6167 23.9217 84.5993 24.1186H85.7409C85.7305 23.9183 85.6817 23.7662 85.5878 23.6591C85.4938 23.552 85.365 23.5002 85.1945 23.5002C85.0239 23.5002 84.8882 23.5555 84.7838 23.6626ZM85.1945 22.9682C85.1632 22.9682 85.1318 22.9578 85.1075 22.9336C85.0958 22.9231 85.0864 22.9103 85.0798 22.896C85.0732 22.8818 85.0696 22.8664 85.0692 22.8507C85.0692 22.8231 85.0796 22.7954 85.1005 22.7712L85.5773 22.1528C85.6365 22.0733 85.7026 22.0353 85.7827 22.0353C85.8384 22.0353 85.8871 22.0526 85.9254 22.0941C85.9636 22.1321 85.9845 22.177 85.9845 22.2288C85.9845 22.2944 85.9497 22.3601 85.8766 22.4188L85.278 22.9405C85.2571 22.9578 85.2293 22.9682 85.1945 22.9682ZM87.9614 23.362C87.9614 23.4277 87.944 23.476 87.9127 23.5071C87.8814 23.5382 87.8257 23.559 87.7456 23.5659L87.6134 23.5797C87.4289 23.597 87.2897 23.6626 87.1992 23.7732C87.1087 23.8837 87.0635 24.0185 87.0635 24.1774V25.1828C87.0635 25.2519 87.0426 25.3071 87.0008 25.3417C86.959 25.3762 86.9068 25.3935 86.8407 25.3935C86.7746 25.3935 86.7224 25.3762 86.6806 25.3417C86.6389 25.3071 86.618 25.2553 86.618 25.1828V23.3931C86.618 23.3275 86.6389 23.2756 86.6806 23.2376C86.7224 23.1996 86.7781 23.1824 86.8407 23.1824C86.8999 23.1824 86.9486 23.1996 86.9904 23.2376C87.0287 23.2756 87.0495 23.324 87.0495 23.3897V23.6004C87.1087 23.4726 87.1922 23.3724 87.3071 23.3067C87.4185 23.2376 87.5472 23.1996 87.6865 23.1893L87.7491 23.1858C87.8918 23.1755 87.9614 23.2342 87.9614 23.362ZM88.2573 22.6814C88.2085 22.633 88.1807 22.5743 88.1807 22.4983C88.1807 22.4223 88.205 22.3601 88.2573 22.3152C88.306 22.2703 88.3756 22.2461 88.4626 22.2461C88.5461 22.2461 88.6123 22.2703 88.6645 22.3152C88.7167 22.3601 88.741 22.4223 88.741 22.4983C88.741 22.5743 88.7167 22.6365 88.6645 22.6814C88.6157 22.7298 88.5461 22.7505 88.4626 22.7505C88.3756 22.754 88.3095 22.7298 88.2573 22.6814ZM88.299 25.3417C88.2573 25.3071 88.2364 25.2553 88.2364 25.1828V23.4C88.2364 23.3309 88.2573 23.2756 88.299 23.2411C88.3408 23.2031 88.3965 23.1858 88.4591 23.1858C88.5252 23.1858 88.5775 23.2031 88.6192 23.2411C88.661 23.2791 88.6819 23.3309 88.6819 23.4V25.1828C88.6819 25.2519 88.661 25.3071 88.6192 25.3417C88.5775 25.3762 88.5252 25.3935 88.4591 25.3935C88.3965 25.3935 88.3443 25.3762 88.299 25.3417ZM91.24 23.2411C91.2783 23.2791 91.2991 23.3344 91.2991 23.3966V25.9705C91.2991 26.0361 91.2783 26.088 91.2365 26.126C91.1947 26.164 91.139 26.1812 91.0729 26.1812C91.0068 26.1812 90.9511 26.164 90.9128 26.126C90.8932 26.1065 90.8779 26.0833 90.8677 26.0578C90.8575 26.0322 90.8527 26.0049 90.8536 25.9774V25.0066C90.7875 25.1344 90.6936 25.2277 90.5717 25.2968C90.4499 25.3659 90.3072 25.397 90.1437 25.397C89.9557 25.397 89.7886 25.3521 89.6425 25.2622C89.4963 25.1724 89.3849 25.0411 89.3049 24.8753C89.2248 24.7094 89.1865 24.516 89.1865 24.2949C89.1865 24.0737 89.2283 23.8768 89.3083 23.7075C89.3884 23.5382 89.5032 23.4069 89.6494 23.3136C89.7956 23.2204 89.9627 23.172 90.1471 23.172C90.3107 23.172 90.4534 23.2065 90.5752 23.2791C90.697 23.3517 90.7945 23.4484 90.8571 23.5762V23.3966C90.8571 23.3309 90.878 23.2791 90.9163 23.2411C90.9546 23.2031 91.0103 23.1824 91.0764 23.1824C91.146 23.1824 91.1982 23.2031 91.24 23.2411ZM90.7005 24.8545C90.8049 24.7233 90.8571 24.5367 90.8571 24.2914C90.8571 24.0461 90.8049 23.8595 90.7005 23.7282C90.5961 23.597 90.4464 23.5313 90.2515 23.5313C90.0601 23.5313 89.9105 23.6004 89.7991 23.7351C89.6912 23.8699 89.6355 24.0599 89.6355 24.2983C89.6355 24.5367 89.6877 24.7233 89.7956 24.8545C89.9035 24.9858 90.0532 25.0515 90.2481 25.0515C90.443 25.0515 90.5926 24.9858 90.7005 24.8545ZM93.7563 23.2411C93.7946 23.2791 93.8155 23.3309 93.8155 23.4V25.1897C93.8155 25.2519 93.7946 25.3002 93.7528 25.3382C93.7111 25.3762 93.6554 25.3935 93.5893 25.3935C93.5266 25.3935 93.4779 25.3762 93.4396 25.3382C93.42 25.3188 93.4046 25.2956 93.3945 25.2701C93.3843 25.2445 93.3795 25.2171 93.3804 25.1897V25.0238C93.3108 25.1482 93.2203 25.2415 93.0985 25.3037C92.9802 25.3693 92.8445 25.4004 92.6983 25.4004C92.1727 25.4004 91.9117 25.1137 91.9117 24.5401V23.3966C91.9117 23.3275 91.9326 23.2756 91.9709 23.2376C92.0092 23.1996 92.0648 23.1824 92.1379 23.1824C92.2041 23.1824 92.2597 23.1996 92.298 23.2376C92.3363 23.2756 92.3572 23.3275 92.3572 23.3966V24.5332C92.3572 24.706 92.392 24.8338 92.4651 24.9167C92.5347 24.9997 92.6461 25.0411 92.7922 25.0411C92.9663 25.0411 93.1055 24.9858 93.2099 24.8753C93.3143 24.7647 93.3665 24.6162 93.3665 24.433V23.4C93.3665 23.3344 93.3874 23.2826 93.4292 23.2446C93.4709 23.2065 93.5266 23.1858 93.5927 23.1858C93.6589 23.1858 93.718 23.2031 93.7563 23.2411ZM96.2344 24.8787C96.2622 24.9098 96.2727 24.9513 96.2727 25.0031C96.2727 25.0895 96.2205 25.1586 96.1126 25.2173C96.0082 25.276 95.8968 25.321 95.775 25.3521C95.6532 25.3832 95.5348 25.4004 95.4235 25.4004C95.0824 25.4004 94.8109 25.3002 94.6125 25.1033C94.4141 24.9064 94.3167 24.6369 94.3167 24.2914C94.3167 24.0703 94.3619 23.8768 94.4489 23.7075C94.5359 23.5382 94.6578 23.4069 94.8179 23.3136C94.9745 23.2204 95.1555 23.172 95.3573 23.172C95.6462 23.172 95.8759 23.2653 96.043 23.4484C96.21 23.6315 96.2936 23.8837 96.2936 24.1947C96.2936 24.3121 96.2414 24.3709 96.1335 24.3709H94.7657C94.7935 24.8235 95.0162 25.0515 95.4235 25.0515C95.5313 25.0515 95.6288 25.0377 95.7054 25.0066C95.7854 24.9789 95.8689 24.9409 95.956 24.8926C95.9664 24.8856 95.9908 24.8753 96.029 24.8545C96.0605 24.8387 96.0948 24.8293 96.13 24.8269C96.1717 24.8304 96.2066 24.8476 96.2344 24.8787ZM94.9501 23.6626C94.8457 23.7697 94.7831 23.9217 94.7657 24.1186H95.9072C95.8968 23.9183 95.8481 23.7662 95.7541 23.6591C95.6601 23.552 95.5313 23.5002 95.3608 23.5002C95.1903 23.5002 95.0545 23.5555 94.9501 23.6626ZM81.0702 3.29928C80.8237 3.29928 80.5874 3.39646 80.4131 3.56946C80.2388 3.74246 80.1409 3.97709 80.1409 4.22174V5.31695H83.2489V7.80104H80.1374V17.7478H76.7162V7.80795H74.346V5.31695H76.7092V4.09391C76.7092 2.28353 78.1884 0.815186 80.0121 0.815186H83.2489V3.29928H81.0702ZM45.0443 17.7512V9.96382C45.0443 8.42638 44.6162 7.26898 43.76 6.49163C42.9038 5.71081 41.63 5.32386 39.942 5.32386H35.0276C34.0427 5.32386 33.2457 6.1254 33.2457 7.11351V7.89087H38.7064C39.8167 7.89087 40.5859 8.03943 41.0174 8.34001C41.449 8.64059 41.6648 9.15883 41.6648 9.89473V10.2057H37.363C35.5949 10.2057 34.3315 10.5132 33.5728 11.1281C32.8106 11.7431 32.4312 12.7554 32.4312 14.1685C32.4312 15.312 32.7619 16.1965 33.4232 16.8184C34.0844 17.4403 35.0311 17.7512 36.2632 17.7512H40.4641V15.2499H37.5962C36.8757 15.2499 36.4024 15.1635 36.1692 14.9907C35.936 14.818 35.8177 14.514 35.8177 14.0752C35.8177 13.5604 35.9639 13.2011 36.2527 12.9938C36.5416 12.7865 37.0706 12.6828 37.8363 12.6828H41.6892V17.7547H45.0443V17.7512ZM60.2329 0.815186H58.5101C57.5669 0.815186 56.8012 1.58218 56.8012 2.52883V3.90043H60.2294V0.815186H60.2329ZM60.2329 5.32041H56.8047V17.7512H60.2329V5.32041ZM61.6285 17.7512H64.8966V8.0498H67.5244C68.3875 8.0498 68.9653 8.18799 69.2507 8.46439C69.536 8.74078 69.6822 9.34539 69.6822 10.2713V17.7478H72.9503V9.87054C72.9503 8.24327 72.5536 7.07551 71.7566 6.37416C70.9595 5.67281 69.6335 5.32041 67.775 5.32041H63.3339C62.3907 5.32041 61.625 6.0874 61.625 7.03405V17.7512H61.6285ZM46.4399 17.7512H49.7081V7.7043H51.1524C51.7789 7.7043 52.2905 8.21563 52.2905 8.84788V10.527H55.4125V8.45402C55.4125 7.29317 55.1549 6.48126 54.6398 6.0183C54.1247 5.55534 53.2233 5.32041 51.939 5.32041H47.5815C46.9516 5.32041 46.4434 5.83174 46.4434 6.46399V17.7512H46.4399ZM96.2901 11.6533C96.2901 9.73234 95.7019 8.1949 94.529 7.04441C93.3456 5.89392 91.7655 5.32041 89.7886 5.32041C87.8013 5.32041 86.2142 5.89392 85.0239 7.04441C83.8406 8.1949 83.2489 9.72889 83.2489 11.6533C83.2489 13.5569 83.8406 15.084 85.0239 16.2241C86.2073 17.3746 87.7944 17.9482 89.7886 17.9482C91.7829 17.9482 93.3665 17.3781 94.5429 16.2345C95.7088 15.0944 96.2901 13.5673 96.2901 11.6533ZM86.6597 11.6533C86.6597 10.4959 86.9312 9.59069 87.4776 8.94117C88.031 8.29164 88.7932 7.96688 89.7608 7.96688C90.7458 7.96688 91.5115 8.29164 92.0579 8.94117C92.6113 9.58033 92.8897 10.4855 92.8897 11.6533C92.8897 12.8107 92.6113 13.7159 92.0579 14.3619C91.5045 15.0115 90.7388 15.3362 89.7608 15.3362C88.7828 15.3362 88.0241 15.0115 87.4776 14.3619C86.9312 13.7159 86.6597 12.8107 86.6597 11.6533ZM103.098 0.815186H103.359V25.4004H103.098V0.815186ZM112.916 10.3404C112.94 10.3646 112.951 10.3957 112.951 10.4337V11.7155C112.951 11.7984 112.913 11.8571 112.84 11.8882C112.707 11.9504 112.544 11.9988 112.356 12.0333C112.164 12.0679 111.973 12.0851 111.778 12.0851C111.444 12.0851 111.155 12.016 110.915 11.8779C110.675 11.7397 110.487 11.5427 110.358 11.2767C110.229 11.0141 110.167 10.6997 110.167 10.337C110.167 9.97764 110.229 9.67016 110.358 9.40758C110.483 9.14501 110.668 8.94462 110.904 8.80643C111.141 8.66477 111.423 8.59567 111.747 8.59567C111.973 8.59567 112.185 8.63368 112.384 8.70623C112.582 8.77879 112.746 8.88243 112.871 9.01718C112.913 9.05863 112.933 9.107 112.933 9.15883C112.933 9.19338 112.923 9.22447 112.906 9.25211C112.885 9.27629 112.86 9.29011 112.833 9.29011C112.805 9.29011 112.77 9.27629 112.725 9.24174C112.551 9.10009 112.394 8.9999 112.248 8.94808C112.102 8.8928 111.935 8.86516 111.747 8.86516C111.343 8.86516 111.033 8.99299 110.814 9.24865C110.595 9.50432 110.487 9.86709 110.487 10.3404C110.487 10.8206 110.598 11.1903 110.817 11.4425C111.037 11.6982 111.36 11.826 111.781 11.826C111.945 11.826 112.105 11.8122 112.262 11.7846C112.418 11.7569 112.561 11.7155 112.683 11.6671V10.5546H111.893C111.848 10.5546 111.813 10.5443 111.788 10.5201C111.764 10.4993 111.754 10.4682 111.754 10.4268C111.754 10.3853 111.768 10.3577 111.788 10.3335C111.813 10.3093 111.848 10.299 111.893 10.299H112.822C112.86 10.3024 112.892 10.3162 112.916 10.3404ZM116.396 11.9539C116.396 11.9884 116.383 12.0195 116.355 12.0437C116.327 12.0679 116.296 12.0817 116.261 12.0817C116.234 12.0824 116.207 12.0756 116.184 12.0622C116.16 12.0488 116.141 12.0292 116.128 12.0057L115.471 10.9588C115.377 10.8103 115.279 10.7101 115.182 10.6548C115.081 10.5995 114.945 10.5719 114.771 10.5719H114.103V11.9228C114.103 11.9711 114.089 12.0091 114.061 12.0368C114.033 12.0644 113.998 12.0782 113.953 12.0782C113.908 12.0782 113.87 12.0644 113.845 12.0368C113.831 12.0216 113.82 12.0036 113.813 11.984C113.805 11.9644 113.802 11.9436 113.804 11.9228V8.7926C113.804 8.75115 113.817 8.7166 113.849 8.6855C113.88 8.65786 113.918 8.64404 113.964 8.64404H115.178C115.54 8.64404 115.815 8.72696 116.01 8.88934C116.205 9.05172 116.303 9.29011 116.303 9.60106C116.303 9.874 116.219 10.0917 116.055 10.254C115.888 10.4164 115.655 10.5097 115.352 10.5339C115.429 10.5615 115.502 10.603 115.568 10.6617C115.634 10.7205 115.7 10.8034 115.767 10.9105L116.372 11.8744C116.386 11.8986 116.396 11.9262 116.396 11.9539ZM115.154 10.3128C115.718 10.3128 116.003 10.0709 116.003 9.59069C116.003 9.35576 115.934 9.17956 115.794 9.06554C115.655 8.95153 115.443 8.8928 115.157 8.8928H114.099V10.3093H115.154V10.3128ZM117.684 11.8779C117.455 11.7362 117.277 11.5358 117.152 11.2732C117.03 11.0107 116.967 10.7032 116.967 10.3473C116.967 9.98801 117.03 9.68052 117.152 9.41449C117.274 9.15192 117.451 8.95153 117.681 8.80988C117.91 8.66823 118.182 8.59913 118.499 8.59913C118.815 8.59913 119.087 8.66823 119.317 8.80988C119.546 8.95153 119.724 9.15192 119.849 9.41104C119.974 9.67016 120.034 9.9811 120.034 10.3404C120.034 10.6997 119.971 11.0072 119.849 11.2732C119.727 11.5358 119.55 11.7362 119.317 11.8779C119.087 12.0195 118.812 12.0886 118.499 12.0886C118.185 12.0886 117.914 12.0195 117.684 11.8779ZM119.397 11.4356C119.612 11.1765 119.717 10.8137 119.717 10.3439C119.717 9.874 119.609 9.50778 119.397 9.25211C119.184 8.99645 118.882 8.86861 118.492 8.86861C118.105 8.86861 117.806 8.99645 117.594 9.25556C117.381 9.51468 117.274 9.87745 117.274 10.3439C117.274 10.8103 117.381 11.1765 117.594 11.4356C117.806 11.6947 118.105 11.826 118.492 11.826C118.878 11.826 119.184 11.6947 119.397 11.4356ZM121.102 11.7466C120.876 11.5185 120.764 11.18 120.764 10.7343V8.76842C120.764 8.72005 120.778 8.68205 120.806 8.65441C120.834 8.62677 120.869 8.61295 120.914 8.61295C120.959 8.61295 120.998 8.62677 121.022 8.65441C121.05 8.68205 121.064 8.72005 121.064 8.76842V10.7654C121.064 11.4702 121.408 11.8191 122.097 11.8191C122.439 11.8191 122.696 11.7293 122.87 11.5531C123.044 11.3769 123.131 11.1143 123.131 10.7654V8.76842C123.131 8.72351 123.145 8.6855 123.173 8.65786C123.201 8.63022 123.236 8.6164 123.281 8.6164C123.326 8.6164 123.361 8.63022 123.389 8.65786C123.417 8.6855 123.427 8.72351 123.427 8.77188V10.7377C123.427 11.1834 123.316 11.5185 123.089 11.75C122.863 11.978 122.532 12.0921 122.097 12.0921C121.659 12.0886 121.328 11.9746 121.102 11.7466ZM124.335 12.0333C124.321 12.0181 124.31 12.0002 124.303 11.9806C124.296 11.961 124.292 11.9401 124.294 11.9193V8.78915C124.294 8.74769 124.308 8.71314 124.339 8.68205C124.37 8.65441 124.408 8.64059 124.454 8.64059H125.595C125.954 8.64059 126.229 8.72696 126.427 8.89625C126.622 9.06554 126.723 9.30739 126.723 9.62179C126.723 9.93618 126.625 10.1815 126.427 10.3542C126.229 10.527 125.954 10.6134 125.599 10.6134H124.6V11.9193C124.6 11.9677 124.586 12.0057 124.558 12.0333C124.53 12.061 124.495 12.0748 124.45 12.0748C124.401 12.0748 124.363 12.061 124.335 12.0333ZM125.578 10.3577C126.138 10.3577 126.42 10.1124 126.42 9.62179C126.42 9.1381 126.138 8.89625 125.578 8.89625H124.6V10.3577H125.578ZM127.45 12.0057C127.435 11.9921 127.424 11.9756 127.416 11.9571C127.408 11.9386 127.404 11.9186 127.405 11.8986V8.78915C127.405 8.74769 127.419 8.71314 127.45 8.68205C127.482 8.65441 127.52 8.64059 127.565 8.64059H129.417C129.459 8.64059 129.493 8.65095 129.518 8.67514C129.542 8.69587 129.556 8.73042 129.556 8.77188C129.556 8.80988 129.542 8.84097 129.518 8.86516C129.493 8.88589 129.459 8.89971 129.417 8.89971H127.701V10.1918H129.319C129.361 10.1918 129.396 10.2022 129.42 10.2264C129.445 10.2471 129.455 10.2817 129.455 10.3231C129.455 10.3646 129.441 10.3957 129.42 10.4199C129.396 10.4441 129.361 10.4544 129.319 10.4544H127.701V11.7984H129.417C129.459 11.7984 129.493 11.8088 129.518 11.8295C129.542 11.8502 129.556 11.8813 129.556 11.9228C129.556 11.9642 129.542 11.9953 129.518 12.0195C129.493 12.0437 129.459 12.0541 129.417 12.0541H127.565C127.522 12.0527 127.481 12.0354 127.45 12.0057ZM110.205 17.5577C110.191 17.543 110.18 17.5257 110.173 17.5067C110.165 17.4877 110.162 17.4675 110.163 17.4472V14.2998C110.163 14.2548 110.177 14.2168 110.205 14.1892C110.233 14.1616 110.267 14.1443 110.313 14.1443C110.358 14.1443 110.396 14.1581 110.421 14.1892C110.448 14.2168 110.462 14.2548 110.462 14.2998V17.4472C110.462 17.4921 110.448 17.5301 110.421 17.5577C110.393 17.5854 110.358 17.6027 110.313 17.6027C110.271 17.6027 110.233 17.5888 110.205 17.5577ZM111.284 16.3831C111.272 16.3721 111.263 16.3587 111.257 16.3437C111.251 16.3288 111.248 16.3128 111.249 16.2967C111.249 16.2587 111.263 16.2276 111.284 16.2034C111.308 16.1792 111.343 16.1689 111.385 16.1689H112.491C112.533 16.1689 112.568 16.1827 112.592 16.2034C112.617 16.2276 112.627 16.2587 112.627 16.2967C112.627 16.3312 112.613 16.3623 112.592 16.3831C112.568 16.4073 112.533 16.4176 112.491 16.4176H111.385C111.339 16.4176 111.308 16.4073 111.284 16.3831ZM116.571 14.1892C116.598 14.2168 116.612 14.2548 116.612 14.2998V17.4472C116.612 17.4921 116.598 17.5301 116.574 17.5577C116.55 17.5854 116.511 17.6027 116.466 17.6027C116.421 17.6027 116.386 17.5888 116.365 17.5612C116.341 17.5336 116.33 17.4956 116.33 17.4472V14.7627L115.175 16.9773C115.137 17.0499 115.081 17.0879 115.015 17.0879C114.949 17.0879 114.893 17.0499 114.855 16.9773L113.689 14.78V17.4437C113.689 17.4921 113.678 17.5301 113.654 17.5577C113.63 17.5854 113.598 17.5992 113.553 17.5992C113.504 17.5992 113.469 17.5854 113.445 17.5577C113.421 17.5301 113.41 17.4921 113.41 17.4437V14.2963C113.41 14.2514 113.424 14.2134 113.452 14.1857C113.48 14.1581 113.518 14.1408 113.567 14.1408C113.626 14.1408 113.675 14.1788 113.713 14.2514L115.025 16.7458L116.316 14.2514C116.355 14.1788 116.403 14.1408 116.463 14.1408C116.504 14.1443 116.543 14.1581 116.571 14.1892ZM120.406 17.4783C120.406 17.5128 120.392 17.5439 120.361 17.5681C120.329 17.5923 120.298 17.6061 120.26 17.6061C120.235 17.6061 120.208 17.5992 120.183 17.5819C120.158 17.5646 120.139 17.5406 120.128 17.5128L119.759 16.6698H117.869L117.493 17.5128C117.465 17.575 117.42 17.6061 117.357 17.6061C117.319 17.6061 117.284 17.5923 117.256 17.5681C117.243 17.5567 117.232 17.5423 117.225 17.5262C117.217 17.51 117.214 17.4925 117.214 17.4748C117.214 17.4541 117.218 17.4334 117.225 17.423L118.648 14.2514C118.676 14.1788 118.732 14.1443 118.808 14.1443C118.843 14.1443 118.878 14.1546 118.909 14.1719C118.938 14.1902 118.962 14.2167 118.975 14.2479L120.392 17.4195C120.402 17.4368 120.406 17.4576 120.406 17.4783ZM117.98 16.4073H119.64L118.812 14.5347L117.98 16.4073ZM123.504 15.8683C123.528 15.8925 123.538 15.9236 123.538 15.9616V17.2433C123.538 17.3263 123.5 17.385 123.427 17.4161C123.295 17.4783 123.131 17.5267 122.943 17.5612C122.752 17.5958 122.56 17.613 122.365 17.613C122.031 17.613 121.742 17.5439 121.502 17.4057C121.259 17.2675 121.074 17.0706 120.945 16.808C120.817 16.5455 120.754 16.2311 120.754 15.8683C120.754 15.509 120.817 15.2015 120.945 14.9389C121.071 14.6763 121.255 14.476 121.492 14.3378C121.729 14.1961 122.01 14.127 122.334 14.127C122.56 14.127 122.773 14.165 122.971 14.2341C123.169 14.3067 123.333 14.4103 123.458 14.5451C123.5 14.5865 123.521 14.6349 123.521 14.6833C123.521 14.7178 123.51 14.7489 123.493 14.7765C123.472 14.8007 123.448 14.8145 123.42 14.8145C123.392 14.8145 123.357 14.7973 123.312 14.7662C123.138 14.6245 122.981 14.5243 122.835 14.4725C122.689 14.4207 122.522 14.3896 122.334 14.3896C121.93 14.3896 121.621 14.5174 121.401 14.7731C121.182 15.0287 121.071 15.4019 121.071 15.8717C121.071 16.352 121.182 16.7217 121.401 16.9739C121.621 17.2295 121.944 17.3574 122.365 17.3574C122.529 17.3574 122.689 17.3435 122.846 17.3159C123.002 17.2883 123.145 17.2503 123.267 17.1984V16.0859H122.477C122.432 16.0859 122.397 16.0756 122.372 16.0514C122.348 16.0272 122.338 15.9996 122.338 15.9581C122.338 15.9201 122.352 15.889 122.372 15.8648C122.397 15.8441 122.432 15.8303 122.477 15.8303H123.406C123.448 15.8337 123.479 15.8441 123.504 15.8683ZM124.429 17.5577C124.415 17.543 124.404 17.5257 124.397 17.5067C124.39 17.4877 124.387 17.4675 124.388 17.4472V14.2998C124.388 14.2548 124.401 14.2168 124.429 14.1892C124.457 14.1616 124.492 14.1443 124.537 14.1443C124.582 14.1443 124.621 14.1581 124.645 14.1892C124.673 14.2168 124.687 14.2548 124.687 14.2998V17.4472C124.687 17.4921 124.673 17.5301 124.645 17.5577C124.617 17.5854 124.582 17.6027 124.537 17.6027C124.492 17.6027 124.457 17.5888 124.429 17.5577ZM128.233 14.1857C128.258 14.2134 128.268 14.2514 128.268 14.2998V17.4472C128.268 17.4921 128.254 17.5301 128.23 17.5577C128.206 17.5854 128.167 17.6027 128.122 17.6027C128.073 17.6027 128.028 17.5785 127.99 17.5301L125.856 14.6729V17.4506C125.856 17.4956 125.842 17.5336 125.818 17.5612C125.794 17.5888 125.759 17.6061 125.717 17.6061C125.668 17.6061 125.634 17.5923 125.609 17.5647C125.585 17.537 125.574 17.499 125.574 17.4506V14.3032C125.574 14.2583 125.588 14.2203 125.616 14.1926C125.644 14.165 125.682 14.1477 125.731 14.1477C125.783 14.1477 125.825 14.1719 125.856 14.2203L127.986 17.0741V14.3032C127.986 14.2583 128 14.2203 128.025 14.1926C128.049 14.165 128.084 14.1477 128.126 14.1477C128.174 14.1443 128.209 14.1581 128.233 14.1857ZM129.204 17.5336C129.19 17.52 129.178 17.5034 129.17 17.4849C129.162 17.4665 129.159 17.4465 129.159 17.4265V14.317C129.159 14.2756 129.173 14.241 129.204 14.2099C129.236 14.1823 129.274 14.165 129.319 14.165H131.171C131.213 14.165 131.247 14.1754 131.272 14.1996C131.296 14.2237 131.31 14.2548 131.31 14.2963C131.31 14.3343 131.296 14.3654 131.272 14.3896C131.247 14.4138 131.213 14.4241 131.171 14.4241H129.455V15.7163H131.073C131.115 15.7163 131.15 15.7266 131.174 15.7508C131.199 15.775 131.209 15.8061 131.209 15.8476C131.209 15.889 131.195 15.9201 131.174 15.9443C131.154 15.9685 131.115 15.9788 131.073 15.9788H129.455V17.3228H131.171C131.213 17.3228 131.247 17.3332 131.272 17.3539C131.296 17.3746 131.31 17.4057 131.31 17.4472C131.31 17.4886 131.296 17.5197 131.272 17.5439C131.247 17.5647 131.213 17.5785 131.171 17.5785H129.319C129.274 17.5785 129.236 17.5647 129.204 17.5336ZM134.575 17.4817C134.575 17.5163 134.561 17.5474 134.533 17.5716C134.505 17.5958 134.474 17.6096 134.439 17.6096C134.412 17.6095 134.386 17.6025 134.363 17.5891C134.339 17.5758 134.32 17.5566 134.307 17.5336L133.649 16.4902C133.555 16.3416 133.458 16.2414 133.36 16.1861C133.259 16.1309 133.123 16.1032 132.949 16.1032H132.281V17.4541C132.281 17.5025 132.267 17.5405 132.239 17.5681C132.212 17.5958 132.177 17.6096 132.132 17.6096C132.086 17.6096 132.048 17.5958 132.024 17.5681C132.009 17.5529 131.998 17.535 131.991 17.5154C131.984 17.4958 131.981 17.4749 131.982 17.4541V14.3239C131.982 14.2825 131.996 14.2479 132.027 14.2168C132.058 14.1892 132.097 14.1719 132.142 14.1719H133.357C133.719 14.1719 133.994 14.2548 134.188 14.4172C134.383 14.5796 134.481 14.818 134.481 15.1324C134.481 15.4053 134.397 15.623 134.234 15.7854C134.067 15.9478 133.833 16.041 133.531 16.0652C133.607 16.0894 133.68 16.1343 133.746 16.1931C133.813 16.2518 133.879 16.3347 133.945 16.4418L134.55 17.4057C134.568 17.4299 134.575 17.4576 134.575 17.4817ZM133.332 15.8407C133.896 15.8407 134.181 15.6023 134.181 15.1186C134.181 14.8836 134.112 14.7074 133.973 14.5934C133.833 14.4794 133.621 14.4207 133.336 14.4207H132.278V15.8372H133.332V15.8407Z" fill="#2E5597"/>
<path d="M29.0204 13.1078H21.3739L7.57404 0.815186H21.8716L29.0204 13.1078Z" fill="#9BA1CB"/>
<path d="M7.57403 0.815186L11.399 7.38991L7.57403 25.4004L0.425232 13.1078L7.57403 0.815186Z" fill="#6777B0"/>
<path d="M7.57404 25.4005L11.399 18.8258L29.0204 13.1079L21.8716 25.4005H7.57404Z" fill="#2E5597"/>
<path d="M7.57404 25.4004L11.399 7.38989L14.7228 13.1078L7.57404 25.4004Z" fill="#D7D9EB"/>
<path d="M7.57404 0.815186L21.3739 13.1078H14.7228L7.57404 0.815186Z" fill="#F5F5FB"/>
<path d="M29.0204 13.1079L11.399 18.8258L14.7228 13.1079H29.0204Z" fill="#AFB3D6"/>
</g>
<defs>
<clipPath id="clip0_4_44">
<rect width="135" height="27" fill="white"/>
</clipPath>
</defs>
</svg>
