<svg width="113" height="113" viewBox="0 0 113 113" fill="none" xmlns="http://www.w3.org/2000/svg">
<path d="M75.9219 35.3125H37.0781C36.103 35.3125 35.3125 36.103 35.3125 37.0781V75.9219C35.3125 76.897 36.103 77.6875 37.0781 77.6875H75.9219C76.897 77.6875 77.6875 76.897 77.6875 75.9219V37.0781C77.6875 36.103 76.897 35.3125 75.9219 35.3125Z" fill="url(#paint0_linear_9_154)" fill-opacity="0.75"/>
<path d="M102.406 42.375C103.343 42.375 104.241 42.003 104.903 41.3407C105.565 40.6785 105.938 39.7803 105.938 38.8438C105.938 37.9072 105.565 37.009 104.903 36.3468C104.241 35.6845 103.343 35.3125 102.406 35.3125H98.875V28.25C98.8709 24.5051 97.3814 20.9147 94.7334 18.2666C92.0853 15.6186 88.4949 14.1291 84.75 14.125H77.6875V10.5938C77.6875 9.6572 77.3155 8.75902 76.6532 8.09678C75.991 7.43454 75.0928 7.0625 74.1562 7.0625C73.2197 7.0625 72.3215 7.43454 71.6593 8.09678C70.997 8.75902 70.625 9.6572 70.625 10.5938V14.125H60.0312V10.5938C60.0312 9.6572 59.6592 8.75902 58.997 8.09678C58.3347 7.43454 57.4365 7.0625 56.5 7.0625C55.5635 7.0625 54.6653 7.43454 54.003 8.09678C53.3408 8.75902 52.9688 9.6572 52.9688 10.5938V14.125H42.375V10.5938C42.375 9.6572 42.003 8.75902 41.3407 8.09678C40.6785 7.43454 39.7803 7.0625 38.8438 7.0625C37.9072 7.0625 37.009 7.43454 36.3468 8.09678C35.6845 8.75902 35.3125 9.6572 35.3125 10.5938V14.125H28.25C24.5051 14.1291 20.9147 15.6186 18.2666 18.2666C15.6186 20.9147 14.1291 24.5051 14.125 28.25V35.3125H10.5938C9.6572 35.3125 8.75902 35.6845 8.09678 36.3468C7.43454 37.009 7.0625 37.9072 7.0625 38.8438C7.0625 39.7803 7.43454 40.6785 8.09678 41.3407C8.75902 42.003 9.6572 42.375 10.5938 42.375H14.125V52.9688H10.5938C9.6572 52.9688 8.75902 53.3408 8.09678 54.003C7.43454 54.6653 7.0625 55.5635 7.0625 56.5C7.0625 57.4365 7.43454 58.3347 8.09678 58.997C8.75902 59.6592 9.6572 60.0312 10.5938 60.0312H14.125V70.625H10.5938C9.6572 70.625 8.75902 70.997 8.09678 71.6593C7.43454 72.3215 7.0625 73.2197 7.0625 74.1562C7.0625 75.0928 7.43454 75.991 8.09678 76.6532C8.75902 77.3155 9.6572 77.6875 10.5938 77.6875H14.125V84.75C14.1291 88.4949 15.6186 92.0853 18.2666 94.7334C20.9147 97.3814 24.5051 98.8709 28.25 98.875H35.3125V102.406C35.3125 103.343 35.6845 104.241 36.3468 104.903C37.009 105.565 37.9072 105.938 38.8438 105.938C39.7803 105.938 40.6785 105.565 41.3407 104.903C42.003 104.241 42.375 103.343 42.375 102.406V98.875H52.9688V102.406C52.9688 103.343 53.3408 104.241 54.003 104.903C54.6653 105.565 55.5635 105.938 56.5 105.938C57.4365 105.938 58.3347 105.565 58.997 104.903C59.6592 104.241 60.0312 103.343 60.0312 102.406V98.875H70.625V102.406C70.625 103.343 70.997 104.241 71.6593 104.903C72.3215 105.565 73.2197 105.938 74.1562 105.938C75.0928 105.938 75.991 105.565 76.6532 104.903C77.3155 104.241 77.6875 103.343 77.6875 102.406V98.875H84.75C88.4949 98.8709 92.0853 97.3814 94.7334 94.7334C97.3814 92.0853 98.8709 88.4949 98.875 84.75V77.6875H102.406C103.343 77.6875 104.241 77.3155 104.903 76.6532C105.565 75.991 105.938 75.0928 105.938 74.1562C105.938 73.2197 105.565 72.3215 104.903 71.6593C104.241 70.997 103.343 70.625 102.406 70.625H98.875V60.0312H102.406C103.343 60.0312 104.241 59.6592 104.903 58.997C105.565 58.3347 105.938 57.4365 105.938 56.5C105.938 55.5635 105.565 54.6653 104.903 54.003C104.241 53.3408 103.343 52.9688 102.406 52.9688H98.875V42.375H102.406ZM84.75 77.6875C84.75 79.5606 84.0059 81.357 82.6814 82.6814C81.357 84.0059 79.5606 84.75 77.6875 84.75H35.3125C33.4394 84.75 31.643 84.0059 30.3186 82.6814C28.9941 81.357 28.25 79.5606 28.25 77.6875V35.3125C28.25 33.4394 28.9941 31.643 30.3186 30.3186C31.643 28.9941 33.4394 28.25 35.3125 28.25H77.6875C79.5606 28.25 81.357 28.9941 82.6814 30.3186C84.0059 31.643 84.75 33.4394 84.75 35.3125V77.6875Z" fill="url(#paint1_linear_9_154)" fill-opacity="0.75"/>
<defs>
<linearGradient id="paint0_linear_9_154" x1="77.7947" y1="56.6071" x2="35.2055" y2="56.6071" gradientUnits="userSpaceOnUse">
<stop stop-color="#EF344A"/>
<stop offset="1" stop-color="#F08019"/>
</linearGradient>
<linearGradient id="paint1_linear_9_154" x1="106.188" y1="56.7498" x2="6.81287" y2="56.7498" gradientUnits="userSpaceOnUse">
<stop stop-color="#EF344A"/>
<stop offset="1" stop-color="#F08019"/>
</linearGradient>
</defs>
</svg>
