<svg width="23" height="24" viewBox="0 0 23 24" fill="none" xmlns="http://www.w3.org/2000/svg">
<path d="M14.9428 3.30151C14.0686 2.3577 12.8477 1.83795 11.5 1.83795C10.1452 1.83795 8.92015 2.35455 8.05001 3.29252C7.17044 4.24082 6.74189 5.52963 6.84251 6.92131C7.04197 9.66694 9.13128 11.9005 11.5 11.9005C13.8687 11.9005 15.9545 9.66738 16.1571 6.92221C16.259 5.54311 15.8278 4.25699 14.9428 3.30151ZM19.4063 21.9629H3.59376C3.38679 21.9656 3.18182 21.9222 2.99377 21.8357C2.80572 21.7492 2.63931 21.6219 2.50665 21.463C2.21466 21.1139 2.09697 20.6373 2.18411 20.1553C2.56325 18.0521 3.7465 16.2853 5.60626 15.045C7.25849 13.9439 9.3514 13.338 11.5 13.338C13.6486 13.338 15.7415 13.9444 17.3938 15.045C19.2535 16.2848 20.4368 18.0516 20.8159 20.1548C20.9031 20.6369 20.7854 21.1135 20.4934 21.4625C20.3608 21.6215 20.1944 21.7489 20.0063 21.8355C19.8183 21.922 19.6133 21.9656 19.4063 21.9629Z" fill="black"/>
</svg>
