<svg width="23" height="24" viewBox="0 0 23 24" fill="none" xmlns="http://www.w3.org/2000/svg">
<g clip-path="url(#clip0_3_46)">
<path d="M22.3437 16.6536L17.3124 14.4973C17.0975 14.4057 16.8586 14.3864 16.6318 14.4423C16.4049 14.4982 16.2024 14.6263 16.0546 14.8073L13.8265 17.5295C10.3297 15.8808 7.51552 13.0667 5.8668 9.56984L8.58906 7.34172C8.7704 7.19423 8.89875 6.99167 8.95468 6.76472C9.01061 6.53776 8.99107 6.29876 8.89902 6.0839L6.74277 1.05265C6.64175 0.821041 6.46308 0.631936 6.23756 0.517949C6.01204 0.403961 5.75382 0.372234 5.50742 0.42824L0.835547 1.50637C0.597986 1.56122 0.386034 1.69498 0.234283 1.88581C0.0825328 2.07664 -5.47243e-05 2.31328 2.72056e-08 2.55709C2.72056e-08 14.0795 9.33926 23.4008 20.8438 23.4008C21.0876 23.401 21.3244 23.3185 21.5153 23.1667C21.7062 23.0149 21.84 22.8029 21.8949 22.5653L22.973 17.8934C23.0287 17.6458 22.9963 17.3866 22.8814 17.1603C22.7666 16.934 22.5764 16.7548 22.3437 16.6536Z" fill="black"/>
</g>
<defs>
<clipPath id="clip0_3_46">
<rect width="23" height="23" fill="white" transform="translate(0 0.400391)"/>
</clipPath>
</defs>
</svg>
