<svg width="101" height="101" viewBox="0 0 101 101" fill="none" xmlns="http://www.w3.org/2000/svg">
<path d="M26.4441 27.2857L30.5098 75.5L48.7655 80.8571L67.0149 75.5033L71.0869 27.2857H26.4441Z" fill="#2196F3"/>
<path d="M62.3943 43.0524L61.8809 49.1093L60.3312 67.2667L48.7655 70.625L48.7559 70.6283L37.1966 67.2667L36.3899 57.7712H42.0531L42.474 62.6964L48.7591 64.4776L48.7623 64.4743L55.0569 62.693L55.9147 54.4866L36.1188 54.5435L35.5576 48.9319L56.3899 48.6741L56.8108 42.6674L34.9995 42.731L34.6328 37.1428H48.7655H62.8981L62.3943 43.0524Z" fill="#FAFAFA"/>
<path d="M50.5 0.5C57.0661 0.5 63.5679 1.79329 69.6342 4.30602C75.7005 6.81876 81.2124 10.5017 85.8553 15.1447C90.4983 19.7876 94.1812 25.2996 96.694 31.3658C99.2067 37.4321 100.5 43.9339 100.5 50.5C100.5 57.0661 99.2067 63.5679 96.694 69.6342C94.1812 75.7005 90.4983 81.2124 85.8553 85.8553C81.2124 90.4983 75.7004 94.1813 69.6342 96.694C63.5679 99.2067 57.0661 100.5 50.5 100.5V92.8484C56.0613 92.8484 61.5681 91.753 66.706 89.6248C71.844 87.4966 76.5124 84.3773 80.4448 80.4448C84.3772 76.5124 87.4966 71.844 89.6248 66.706C91.753 61.5681 92.8484 56.0613 92.8484 50.5C92.8484 44.9387 91.753 39.4319 89.6248 34.294C87.4966 29.156 84.3773 24.4876 80.4448 20.5552C76.5124 16.6228 71.844 13.5034 66.706 11.3752C61.5681 9.24698 56.0613 8.15161 50.5 8.15161V0.5Z" fill="url(#paint0_linear_3_101)" fill-opacity="0.75"/>
<defs>
<linearGradient id="paint0_linear_3_101" x1="100.753" y1="50.7527" x2="0.247527" y2="50.7527" gradientUnits="userSpaceOnUse">
<stop stop-color="#EF344A"/>
<stop offset="1" stop-color="#F08019"/>
</linearGradient>
</defs>
</svg>
