<svg width="101" height="101" viewBox="0 0 101 101" fill="none" xmlns="http://www.w3.org/2000/svg">
<path d="M26.9489 27.2856L30.087 74.1713L49.2704 80.8571L68.4537 74.1713L71.5918 27.2856H26.9489Z" fill="#FF7816"/>
<path d="M63.214 41.5156H41.2773L41.81 49.3629H62.6813L61.4081 68.3638L49.2704 72.6643L37.1327 68.3638L36.7183 62.0234H42.6391L42.7575 63.7498L49.2704 66.0411L55.7833 63.7498L56.316 55.6408H36.2742L34.9124 35.2377H63.6284L63.214 41.5156Z" fill="#ECECF1"/>
<path d="M50.5 0.5C58.7225 0.5 66.8182 2.52785 74.0698 6.40394C81.3215 10.28 87.5053 15.8847 92.0735 22.7215C96.6417 29.5583 99.4533 37.4162 100.259 45.5991C101.065 53.7821 99.8406 62.0375 96.694 69.6342C93.5473 77.2308 88.5758 83.9342 82.2197 89.1505C75.8636 94.3668 68.3191 97.9351 60.2545 99.5393C52.19 101.143 43.8543 100.734 35.9858 98.347C28.1173 95.9601 20.9589 91.6696 15.1447 85.8553L20.5552 80.4448C25.4796 85.3693 31.5426 89.0033 38.2069 91.0249C44.8713 93.0465 51.9314 93.3933 58.7618 92.0347C65.5922 90.676 71.9821 87.6538 77.3655 83.2357C82.749 78.8177 86.9597 73.1401 89.6248 66.706C92.2899 60.2719 93.3271 53.2798 92.6445 46.3491C91.9619 39.4184 89.5805 32.763 85.7114 26.9725C81.8423 21.1819 76.6048 16.435 70.4629 13.1521C64.321 9.86913 57.4642 8.15161 50.5 8.15161V0.5Z" fill="url(#paint0_linear_3_93)" fill-opacity="0.75"/>
<defs>
<linearGradient id="paint0_linear_3_93" x1="100.753" y1="50.7527" x2="0.247527" y2="50.7527" gradientUnits="userSpaceOnUse">
<stop stop-color="#EF344A"/>
<stop offset="1" stop-color="#F08019"/>
</linearGradient>
</defs>
</svg>
