<svg width="101" height="101" viewBox="0 0 101 101" fill="none" xmlns="http://www.w3.org/2000/svg">
<g clip-path="url(#clip0_3_117)">
<path d="M28.2712 49.4303V26.9488H73.2342V71.9117H28.2712" fill="#007ACC"/>
<path d="M38.1294 49.509V51.3412H43.9745V67.9775H48.1224V51.3412H53.9676V49.5427C53.9676 48.531 53.9676 47.7104 53.9226 47.688C53.9226 47.6542 50.3593 47.643 46.0316 47.643L38.1631 47.6767V49.5202L38.1294 49.509ZM64.399 47.6317C65.5455 47.9015 66.4223 48.4186 67.2091 49.2392C67.6251 49.6888 68.2433 50.4757 68.2883 50.678C68.2883 50.7454 66.3436 52.0606 65.1633 52.7912C65.1184 52.825 64.9385 52.6339 64.7587 52.3416C64.1741 51.5098 63.5784 51.1501 62.6454 51.0827C61.2965 50.9927 60.3973 51.7009 60.3973 52.8812C60.3973 53.2409 60.4647 53.4432 60.5996 53.7355C60.9031 54.3537 61.4651 54.7247 63.2074 55.489C66.4223 56.8716 67.8161 57.7821 68.6592 59.0861C69.6147 60.5473 69.8282 62.8405 69.1875 64.5603C68.4681 66.4375 66.7146 67.7077 64.2079 68.1236C63.421 68.2585 61.6225 68.236 60.7794 68.0899C58.9809 67.7527 57.2611 66.8534 56.2045 65.6956C55.7886 65.246 54.9905 64.0432 55.0354 63.9645L55.4626 63.6948L57.1487 62.7168L58.4189 61.9749L58.7111 62.3684C59.0821 62.9529 59.9139 63.7397 60.3973 64.0095C61.8586 64.7626 63.8144 64.6615 64.7811 63.7847C65.1971 63.4025 65.3769 62.9978 65.3769 62.4358C65.3769 61.9187 65.2982 61.6827 65.0397 61.2892C64.68 60.7946 63.9606 60.39 61.9372 59.4907C59.6104 58.5015 58.6212 57.8721 57.6995 56.9054C57.1712 56.3208 56.6878 55.4103 56.463 54.6572C56.2944 54.0052 56.2382 52.4091 56.3956 51.7683C56.8789 49.5202 58.5763 47.9465 61.0043 47.4969C61.7911 47.3395 63.6458 47.4069 64.4214 47.6093L64.399 47.6317Z" fill="white"/>
</g>
<path d="M50.5 0.5C57.0661 0.5 63.5679 1.79329 69.6342 4.30602C75.7005 6.81876 81.2124 10.5017 85.8553 15.1447C90.4983 19.7876 94.1812 25.2996 96.694 31.3658C99.2067 37.4321 100.5 43.9339 100.5 50.5H92.8484C92.8484 44.9387 91.753 39.4319 89.6248 34.294C87.4966 29.156 84.3773 24.4876 80.4448 20.5552C76.5124 16.6228 71.844 13.5034 66.706 11.3752C61.5681 9.24698 56.0613 8.15161 50.5 8.15161V0.5Z" fill="url(#paint0_linear_3_117)" fill-opacity="0.75"/>
<defs>
<linearGradient id="paint0_linear_3_117" x1="100.753" y1="50.7527" x2="0.247527" y2="50.7527" gradientUnits="userSpaceOnUse">
<stop stop-color="#EF344A"/>
<stop offset="1" stop-color="#F08019"/>
</linearGradient>
<clipPath id="clip0_3_117">
<rect width="44.9629" height="44.9629" fill="white" transform="translate(28.2712 26.9488)"/>
</clipPath>
</defs>
</svg>
