<svg width="125" height="125" viewBox="0 0 125 125" fill="none" xmlns="http://www.w3.org/2000/svg">
<path d="M49.375 18.0663C40.5542 13.8549 28.2251 11.7919 11.7188 11.7187C10.162 11.6975 8.63587 12.1515 7.34376 13.0199C6.28319 13.7368 5.41502 14.7033 4.81561 15.8344C4.21621 16.9655 3.90393 18.2266 3.90626 19.5068V89.3554C3.90626 94.0771 7.26564 97.6391 11.7188 97.6391C29.0698 97.6391 46.4746 99.2602 56.8994 109.114C57.042 109.249 57.2213 109.34 57.4149 109.374C57.6085 109.408 57.808 109.385 57.9885 109.307C58.169 109.229 58.3226 109.1 58.4302 108.935C58.5378 108.771 58.5947 108.578 58.5938 108.381V26.079C58.5942 25.5237 58.4754 24.9748 58.2454 24.4694C58.0155 23.964 57.6797 23.5138 57.2607 23.1493C54.8728 21.1079 52.2203 19.3981 49.375 18.0663ZM117.656 13.0126C116.364 12.1463 114.837 11.6949 113.281 11.7187C96.7749 11.7919 84.4458 13.8451 75.625 18.0663C72.7799 19.3957 70.1266 21.1021 67.7368 23.1396C67.3189 23.5047 66.9839 23.955 66.7544 24.4604C66.5249 24.9657 66.4062 25.5143 66.4063 26.0693V108.376C66.4061 108.565 66.4618 108.75 66.5663 108.908C66.6708 109.065 66.8195 109.188 66.9937 109.261C67.1679 109.335 67.3598 109.355 67.5455 109.319C67.7311 109.284 67.9021 109.195 68.0371 109.062C74.3042 102.837 85.3027 97.6318 113.291 97.6342C115.363 97.6342 117.35 96.8111 118.815 95.346C120.28 93.8808 121.104 91.8937 121.104 89.8217V19.5092C121.106 18.2265 120.793 16.9629 120.192 15.8299C119.591 14.6969 118.72 13.7293 117.656 13.0126Z" fill="url(#paint0_linear_9_146)" fill-opacity="0.75"/>
<defs>
<linearGradient id="paint0_linear_9_146" x1="121.4" y1="60.8004" x2="3.61036" y2="60.8004" gradientUnits="userSpaceOnUse">
<stop stop-color="#EF344A"/>
<stop offset="1" stop-color="#F08019"/>
</linearGradient>
</defs>
</svg>
