<svg width="122" height="122" viewBox="0 0 122 122" fill="none" xmlns="http://www.w3.org/2000/svg">
<path d="M115.121 58.4695C110.067 35.6207 102.461 23.4255 91.1783 20.0943C88.8066 19.3986 86.3465 19.0511 83.875 19.0625C80.6081 19.0625 77.7631 19.8584 74.7536 20.7019C71.1269 21.7194 67.007 22.875 61 22.875C54.9929 22.875 50.8706 21.7217 47.2369 20.7043C44.225 19.8584 41.3823 19.0625 38.125 19.0625C35.5692 19.0537 33.0247 19.4001 30.5643 20.0919C19.3413 23.4088 11.7401 35.5992 6.61229 58.4552C1.09846 83.0506 3.81248 98.5794 14.223 102.182C15.65 102.685 17.1515 102.945 18.6646 102.949C25.7963 102.949 31.5151 97.0091 35.4229 92.1458C39.8382 86.6415 45.0065 83.8488 61 83.8488C75.2849 83.8488 81.1967 85.786 86.3031 92.1458C89.5127 96.1441 92.546 98.9416 95.5722 100.702C99.5968 103.042 103.619 103.562 107.524 102.22C113.677 100.121 117.203 94.5715 118.009 85.7217C118.621 78.9355 117.678 70.0214 115.121 58.4695ZM49.5625 57.1875H41.9375V64.8125C41.9375 65.8237 41.5358 66.7934 40.8208 67.5084C40.1058 68.2234 39.1361 68.625 38.125 68.625C37.1138 68.625 36.1441 68.2234 35.4291 67.5084C34.7142 66.7934 34.3125 65.8237 34.3125 64.8125V57.1875H26.6875C25.6763 57.1875 24.7066 56.7859 23.9916 56.0709C23.2767 55.3559 22.875 54.3862 22.875 53.375C22.875 52.3639 23.2767 51.3942 23.9916 50.6792C24.7066 49.9642 25.6763 49.5625 26.6875 49.5625H34.3125V41.9375C34.3125 40.9264 34.7142 39.9567 35.4291 39.2417C36.1441 38.5267 37.1138 38.125 38.125 38.125C39.1361 38.125 40.1058 38.5267 40.8208 39.2417C41.5358 39.9567 41.9375 40.9264 41.9375 41.9375V49.5625H49.5625C50.5736 49.5625 51.5433 49.9642 52.2583 50.6792C52.9733 51.3942 53.375 52.3639 53.375 53.375C53.375 54.3862 52.9733 55.3559 52.2583 56.0709C51.5433 56.7859 50.5736 57.1875 49.5625 57.1875ZM69.5781 58.1407C68.6356 58.1407 67.7142 57.8612 66.9305 57.3375C66.1468 56.8138 65.5359 56.0696 65.1752 55.1988C64.8145 54.3279 64.7202 53.3697 64.9041 52.4453C65.0879 51.5209 65.5418 50.6717 66.2083 50.0052C66.8748 49.3387 67.7239 48.8849 68.6484 48.701C69.5728 48.5171 70.531 48.6115 71.4018 48.9722C72.2726 49.3329 73.0169 49.9437 73.5406 50.7274C74.0642 51.5111 74.3437 52.4325 74.3437 53.375C74.3437 54.639 73.8416 55.8511 72.9479 56.7448C72.0542 57.6386 70.842 58.1407 69.5781 58.1407ZM80.0625 68.625C79.1194 68.625 78.1976 68.3452 77.4136 67.821C76.6297 67.2969 76.0188 66.5519 75.6585 65.6804C75.2981 64.8089 75.2045 63.85 75.3893 62.9253C75.5742 62.0005 76.0292 61.1514 76.6969 60.4854C77.3646 59.8194 78.2149 59.3664 79.1401 59.1839C80.0653 59.0014 81.0239 59.0974 81.8945 59.46C82.7651 59.8225 83.5085 60.4352 84.0308 61.2204C84.553 62.0057 84.8305 62.9283 84.8281 63.8713C84.825 65.1332 84.3215 66.3423 83.4281 67.2334C82.5347 68.1246 81.3243 68.625 80.0625 68.625ZM80.0625 47.6563C79.1199 47.6563 78.1985 47.3768 77.4148 46.8531C76.6311 46.3295 76.0203 45.5852 75.6596 44.7144C75.2989 43.8436 75.2046 42.8854 75.3884 41.9609C75.5723 41.0365 76.0262 40.1873 76.6927 39.5208C77.3592 38.8544 78.2083 38.4005 79.1328 38.2166C80.0572 38.0327 81.0154 38.1271 81.8862 38.4878C82.757 38.8485 83.5013 39.4593 84.025 40.243C84.5486 41.0267 84.8281 41.9481 84.8281 42.8907C84.8281 44.1546 84.326 45.3667 83.4323 46.2605C82.5386 47.1542 81.3264 47.6563 80.0625 47.6563ZM90.5469 58.1407C89.6043 58.1407 88.6829 57.8612 87.8992 57.3375C87.1155 56.8138 86.5047 56.0696 86.144 55.1988C85.7833 54.3279 85.6889 53.3697 85.8728 52.4453C86.0567 51.5209 86.5106 50.6717 87.177 50.0052C87.8435 49.3387 88.6927 48.8849 89.6171 48.701C90.5416 48.5171 91.4998 48.6115 92.3706 48.9722C93.2414 49.3329 93.9857 49.9437 94.5093 50.7274C95.033 51.5111 95.3125 52.4325 95.3125 53.375C95.3125 54.639 94.8104 55.8511 93.9167 56.7448C93.0229 57.6386 91.8108 58.1407 90.5469 58.1407Z" fill="url(#paint0_linear_9_142)" fill-opacity="0.75"/>
<defs>
<linearGradient id="paint0_linear_9_142" x1="118.478" y1="61.2178" x2="3.53193" y2="61.2178" gradientUnits="userSpaceOnUse">
<stop stop-color="#EF344A"/>
<stop offset="1" stop-color="#F08019"/>
</linearGradient>
</defs>
</svg>
