<svg width="23" height="24" viewBox="0 0 23 24" fill="none" xmlns="http://www.w3.org/2000/svg">
<path d="M11.7497 4.95015C11.6829 4.88617 11.5939 4.85046 11.5013 4.85046C11.4088 4.85046 11.3198 4.88617 11.2529 4.95015L2.98279 12.8506C2.94767 12.8842 2.91972 12.9245 2.90065 12.9692C2.88158 13.0139 2.87178 13.0621 2.87183 13.1107L2.87048 20.5255C2.87048 20.9067 3.02193 21.2723 3.29152 21.5419C3.5611 21.8115 3.92673 21.963 4.30798 21.963H8.62498C8.8156 21.963 8.99842 21.8872 9.13321 21.7524C9.268 21.6177 9.34373 21.4348 9.34373 21.2442V15.1348C9.34373 15.0395 9.38159 14.9481 9.44898 14.8807C9.51638 14.8133 9.60779 14.7755 9.7031 14.7755H13.2969C13.3922 14.7755 13.4836 14.8133 13.551 14.8807C13.6184 14.9481 13.6562 15.0395 13.6562 15.1348V21.2442C13.6562 21.4348 13.7319 21.6177 13.8667 21.7524C14.0015 21.8872 14.1844 21.963 14.375 21.963H18.6902C19.0714 21.963 19.4371 21.8115 19.7066 21.5419C19.9762 21.2723 20.1277 20.9067 20.1277 20.5255V13.1107C20.1277 13.0621 20.1179 13.0139 20.0988 12.9692C20.0798 12.9245 20.0518 12.8842 20.0167 12.8506L11.7497 4.95015Z" fill="black"/>
<path d="M22.0526 11.3681L18.6925 8.15352V3.27545C18.6925 3.08483 18.6167 2.90201 18.4819 2.76722C18.3471 2.63243 18.1643 2.5567 17.9737 2.5567H15.8175C15.6268 2.5567 15.444 2.63243 15.3092 2.76722C15.1744 2.90201 15.0987 3.08483 15.0987 3.27545V4.71295L12.4968 2.22518C12.2534 1.97901 11.8913 1.83795 11.5 1.83795C11.1101 1.83795 10.7489 1.97901 10.5054 2.22563L0.950564 11.3672C0.67115 11.6368 0.636111 12.0801 0.890369 12.3721C0.954216 12.4458 1.03239 12.5058 1.12014 12.5483C1.20789 12.5908 1.30338 12.6151 1.40079 12.6195C1.4982 12.624 1.5955 12.6086 1.68676 12.5742C1.77803 12.5399 1.86135 12.4873 1.93166 12.4197L11.2529 3.51264C11.3198 3.44866 11.4088 3.41295 11.5014 3.41295C11.5939 3.41295 11.6829 3.44866 11.7498 3.51264L21.072 12.4197C21.2093 12.5514 21.3932 12.6233 21.5834 12.6196C21.7737 12.6159 21.9547 12.5369 22.0868 12.4C22.3626 12.1143 22.3397 11.6426 22.0526 11.3681Z" fill="black"/>
</svg>
