<svg width="23" height="24" viewBox="0 0 23 24" fill="none" xmlns="http://www.w3.org/2000/svg">
<path d="M19.0469 3.99414H3.95312C3.28616 3.99485 2.64671 4.26012 2.1751 4.73174C1.70348 5.20335 1.43821 5.8428 1.4375 6.50977V17.291C1.43821 17.958 1.70348 18.5974 2.1751 19.069C2.64671 19.5407 3.28616 19.8059 3.95312 19.8066H19.0469C19.7138 19.8059 20.3533 19.5407 20.8249 19.069C21.2965 18.5974 21.5618 17.958 21.5625 17.291V6.50977C21.5618 5.8428 21.2965 5.20335 20.8249 4.73174C20.3533 4.26012 19.7138 3.99485 19.0469 3.99414ZM18.4099 8.15525L11.9411 13.1865C11.815 13.2846 11.6598 13.3378 11.5 13.3378C11.3402 13.3378 11.185 13.2846 11.0589 13.1865L4.59012 8.15525C4.51412 8.09786 4.45028 8.02593 4.40231 7.94365C4.35435 7.86137 4.32322 7.77038 4.31073 7.67597C4.29823 7.58155 4.30463 7.48559 4.32954 7.39367C4.35445 7.30175 4.39739 7.21569 4.45585 7.14051C4.5143 7.06532 4.58712 7.0025 4.67007 6.9557C4.75302 6.9089 4.84444 6.87905 4.93902 6.86789C5.0336 6.85672 5.12946 6.86447 5.22102 6.89067C5.31258 6.91688 5.39803 6.96102 5.47238 7.02053L11.5 11.7086L17.5276 7.02053C17.6783 6.90671 17.8678 6.85678 18.055 6.88156C18.2423 6.90634 18.4123 7.00382 18.5282 7.15292C18.6441 7.30203 18.6967 7.49078 18.6746 7.67835C18.6524 7.86592 18.5573 8.03724 18.4099 8.15525Z" fill="black"/>
</svg>
