<svg width="117" height="117" viewBox="0 0 117 117" fill="none" xmlns="http://www.w3.org/2000/svg">
<path d="M112.062 41.7612C110.794 38.747 108.687 36.5739 105.967 35.4793L105.931 35.4656C104.693 34.9808 103.375 34.7327 102.046 34.7343H101.9C95.6749 34.828 89.3199 40.1181 86.0887 47.8991C83.719 53.5891 83.447 59.7088 85.362 64.27C86.628 67.2864 88.7395 69.4595 91.4702 70.5541L91.4999 70.5656C92.7378 71.05 94.0555 71.298 95.3847 71.2968C101.669 71.2968 108.09 66.0067 111.381 58.1229C113.721 52.4397 113.979 46.3246 112.062 41.7612ZM87.1901 75.321C83.6002 73.1638 80.2067 71.1231 77.9901 67.4577C71.875 57.3117 68.1822 51.1874 58.5 51.1874C48.8178 51.1874 45.1158 57.3117 38.9871 67.4577C36.7659 71.1277 33.3656 73.1706 29.7642 75.337C25.6349 77.8186 21.3685 80.3826 19.5267 85.4282C18.8106 87.2471 18.4499 89.1864 18.4641 91.1411C18.4641 99.3562 24.8625 106.04 32.7234 106.04C36.7796 106.04 41.0963 104.635 45.6643 103.147C50.0563 101.717 54.597 100.238 58.5229 100.238C62.4488 100.238 66.9779 101.717 71.354 103.147C75.9129 104.626 80.209 106.031 84.2766 106.031C92.1261 106.031 98.5131 99.3471 98.5131 91.132C98.5196 89.1758 98.1511 87.2365 97.4276 85.4191C95.5858 80.3689 91.3171 77.8026 87.1901 75.321ZM34.2773 43.1551C36.9967 46.5668 40.4473 48.4452 43.9938 48.4452C44.478 48.4452 44.9615 48.4093 45.4403 48.3378C52.8374 47.2501 57.4465 38.2237 55.9338 27.7714C55.3008 23.3771 53.6098 19.2844 51.1875 16.2497C48.4727 12.8448 45.0176 10.9687 41.4733 10.9687C40.9891 10.9687 40.5056 11.0046 40.0268 11.0761C32.6297 12.1638 28.0206 21.1902 29.5334 31.6425C30.1641 36.03 31.8551 40.1181 34.2773 43.1551ZM71.562 48.3378C72.0408 48.4093 72.5243 48.4452 73.0085 48.4452C76.5573 48.4452 80.0056 46.5668 82.7249 43.1551C85.1449 40.1181 86.8268 36.03 87.4666 31.6379C88.9794 21.1902 84.3703 12.1638 76.9732 11.0715C76.4944 11 76.0109 10.9641 75.5267 10.9641C71.9824 10.9687 68.5273 12.8448 65.8125 16.2497C63.3902 19.2844 61.6992 23.3771 61.0685 27.776C59.5557 38.2237 64.1649 47.2501 71.562 48.3378ZM25.5001 70.5656L25.532 70.5541C28.2582 69.4595 30.3674 67.2886 31.6311 64.2745C33.5461 59.7042 33.2764 53.5914 30.9113 47.9014C27.6367 40.0267 21.2177 34.7343 14.9404 34.7343C13.611 34.7324 12.2932 34.9804 11.0556 35.4656L11.0236 35.477C8.30426 36.5624 6.19506 38.7425 4.93137 41.7566C3.01641 46.3269 3.28605 52.4397 5.65119 58.1297C8.92582 66.0044 15.3448 71.2968 21.6221 71.2968C22.9492 71.2979 24.2646 71.0498 25.5001 70.5656Z" fill="url(#paint0_linear_9_150)" fill-opacity="0.75"/>
<defs>
<linearGradient id="paint0_linear_9_150" x1="113.615" y1="58.7425" x2="3.38792" y2="58.7425" gradientUnits="userSpaceOnUse">
<stop stop-color="#EF344A"/>
<stop offset="1" stop-color="#F08019"/>
</linearGradient>
</defs>
</svg>
